solid Pièce5_ViceTcyM2_Défaut_sldprt
   facet normal 0.000000e+000 0.000000e+000 -1.000000e+000
      outer loop
         vertex -1.986230e+000 -2.342884e-001 0.000000e+000
         vertex 1.986230e+000 -2.342884e-001 0.000000e+000
         vertex 1.979643e+000 -2.846297e-001 0.000000e+000
      endloop
   endfacet
   facet normal 0.000000e+000 0.000000e+000 -1.000000e+000
      outer loop
         vertex -8.308300e-001 -1.819264e+000 0.000000e+000
         vertex -1.081282e+000 -1.682507e+000 0.000000e+000
         vertex 5.634651e-001 -1.918986e+000 0.000000e+000
      endloop
   endfacet
   facet normal 0.000000e+000 0.000000e+000 -1.000000e+000
      outer loop
         vertex 5.634651e-001 -1.918986e+000 0.000000e+000
         vertex 2.846297e-001 -1.979643e+000 0.000000e+000
         vertex 3.673940e-016 -2.000000e+000 0.000000e+000
      endloop
   endfacet
   facet normal 0.000000e+000 0.000000e+000 -1.000000e+000
      outer loop
         vertex -1.986230e+000 -2.342884e-001 0.000000e+000
         vertex 1.979643e+000 -2.846297e-001 0.000000e+000
         vertex -1.979643e+000 -2.846297e-001 0.000000e+000
      endloop
   endfacet
   facet normal 0.000000e+000 0.000000e+000 -1.000000e+000
      outer loop
         vertex -1.979643e+000 -2.846297e-001 0.000000e+000
         vertex 1.979643e+000 -2.846297e-001 0.000000e+000
         vertex 1.918986e+000 -5.634651e-001 0.000000e+000
      endloop
   endfacet
   facet normal 0.000000e+000 0.000000e+000 -1.000000e+000
      outer loop
         vertex -1.979643e+000 -2.846297e-001 0.000000e+000
         vertex 1.918986e+000 -5.634651e-001 0.000000e+000
         vertex 1.819264e+000 -8.308300e-001 0.000000e+000
      endloop
   endfacet
   facet normal 0.000000e+000 0.000000e+000 -1.000000e+000
      outer loop
         vertex 1.819264e+000 -8.308300e-001 0.000000e+000
         vertex 1.682507e+000 -1.081282e+000 0.000000e+000
         vertex -1.979643e+000 -2.846297e-001 0.000000e+000
      endloop
   endfacet
   facet normal 0.000000e+000 0.000000e+000 -1.000000e+000
      outer loop
         vertex -1.979643e+000 -2.846297e-001 0.000000e+000
         vertex 1.682507e+000 -1.081282e+000 0.000000e+000
         vertex 1.511499e+000 -1.309721e+000 0.000000e+000
      endloop
   endfacet
   facet normal 0.000000e+000 0.000000e+000 -1.000000e+000
      outer loop
         vertex -1.979643e+000 -2.846297e-001 0.000000e+000
         vertex 1.511499e+000 -1.309721e+000 0.000000e+000
         vertex 1.309721e+000 -1.511499e+000 0.000000e+000
      endloop
   endfacet
   facet normal 0.000000e+000 0.000000e+000 -1.000000e+000
      outer loop
         vertex 1.309721e+000 -1.511499e+000 0.000000e+000
         vertex 1.081282e+000 -1.682507e+000 0.000000e+000
         vertex -1.979643e+000 -2.846297e-001 0.000000e+000
      endloop
   endfacet
   facet normal 0.000000e+000 0.000000e+000 -1.000000e+000
      outer loop
         vertex -1.979643e+000 -2.846297e-001 0.000000e+000
         vertex 1.081282e+000 -1.682507e+000 0.000000e+000
         vertex 8.308300e-001 -1.819264e+000 0.000000e+000
      endloop
   endfacet
   facet normal 0.000000e+000 0.000000e+000 -1.000000e+000
      outer loop
         vertex -1.979643e+000 -2.846297e-001 0.000000e+000
         vertex 8.308300e-001 -1.819264e+000 0.000000e+000
         vertex 5.634651e-001 -1.918986e+000 0.000000e+000
      endloop
   endfacet
   facet normal 0.000000e+000 0.000000e+000 -1.000000e+000
      outer loop
         vertex 3.673940e-016 -2.000000e+000 0.000000e+000
         vertex -2.846297e-001 -1.979643e+000 0.000000e+000
         vertex 5.634651e-001 -1.918986e+000 0.000000e+000
      endloop
   endfacet
   facet normal 0.000000e+000 0.000000e+000 -1.000000e+000
      outer loop
         vertex 5.634651e-001 -1.918986e+000 0.000000e+000
         vertex -2.846297e-001 -1.979643e+000 0.000000e+000
         vertex -5.634651e-001 -1.918986e+000 0.000000e+000
      endloop
   endfacet
   facet normal 0.000000e+000 0.000000e+000 -1.000000e+000
      outer loop
         vertex 5.634651e-001 -1.918986e+000 0.000000e+000
         vertex -5.634651e-001 -1.918986e+000 0.000000e+000
         vertex -8.308300e-001 -1.819264e+000 0.000000e+000
      endloop
   endfacet
   facet normal 0.000000e+000 0.000000e+000 -1.000000e+000
      outer loop
         vertex -1.081282e+000 -1.682507e+000 0.000000e+000
         vertex -1.309721e+000 -1.511499e+000 0.000000e+000
         vertex 5.634651e-001 -1.918986e+000 0.000000e+000
      endloop
   endfacet
   facet normal 0.000000e+000 0.000000e+000 -1.000000e+000
      outer loop
         vertex 5.634651e-001 -1.918986e+000 0.000000e+000
         vertex -1.309721e+000 -1.511499e+000 0.000000e+000
         vertex -1.511499e+000 -1.309721e+000 0.000000e+000
      endloop
   endfacet
   facet normal 0.000000e+000 0.000000e+000 -1.000000e+000
      outer loop
         vertex 5.634651e-001 -1.918986e+000 0.000000e+000
         vertex -1.511499e+000 -1.309721e+000 0.000000e+000
         vertex -1.682507e+000 -1.081282e+000 0.000000e+000
      endloop
   endfacet
   facet normal 0.000000e+000 0.000000e+000 -1.000000e+000
      outer loop
         vertex -1.682507e+000 -1.081282e+000 0.000000e+000
         vertex -1.819264e+000 -8.308300e-001 0.000000e+000
         vertex 5.634651e-001 -1.918986e+000 0.000000e+000
      endloop
   endfacet
   facet normal 0.000000e+000 0.000000e+000 -1.000000e+000
      outer loop
         vertex 5.634651e-001 -1.918986e+000 0.000000e+000
         vertex -1.819264e+000 -8.308300e-001 0.000000e+000
         vertex -1.918986e+000 -5.634651e-001 0.000000e+000
      endloop
   endfacet
   facet normal 0.000000e+000 0.000000e+000 -1.000000e+000
      outer loop
         vertex 5.634651e-001 -1.918986e+000 0.000000e+000
         vertex -1.918986e+000 -5.634651e-001 0.000000e+000
         vertex -1.979643e+000 -2.846297e-001 0.000000e+000
      endloop
   endfacet
   facet normal -9.920881e-001 1.255434e-001 0.000000e+000
      outer loop
         vertex -1.979643e+000 2.846297e-001 0.000000e+000
         vertex -1.986230e+000 2.342884e-001 0.000000e+000
         vertex -1.986230e+000 2.342884e-001 5.000000e-001
      endloop
   endfacet
   facet normal 9.920881e-001 -1.255434e-001 0.000000e+000
      outer loop
         vertex 1.979643e+000 -2.846297e-001 0.000000e+000
         vertex 1.986230e+000 -2.342884e-001 0.000000e+000
         vertex 1.986230e+000 -2.342884e-001 5.000000e-001
      endloop
   endfacet
   facet normal 9.962385e-001 8.665390e-002 0.000000e+000
      outer loop
         vertex 1.986230e+000 2.342884e-001 5.000000e-001
         vertex 1.979643e+000 2.846297e-001 2.000000e+000
         vertex 2.000000e+000 2.449294e-016 5.000000e-001
      endloop
   endfacet
   facet normal 9.988691e-001 4.754595e-002 0.000000e+000
      outer loop
         vertex 2.000000e+000 2.449294e-016 5.000000e-001
         vertex 1.979643e+000 2.846297e-001 2.000000e+000
         vertex 2.000000e+000 2.449294e-016 2.000000e+000
      endloop
   endfacet
   facet normal 9.992350e-001 -3.910794e-002 0.000000e+000
      outer loop
         vertex 2.000000e+000 2.449294e-016 5.000000e-001
         vertex 2.000000e+000 2.449294e-016 2.000000e+000
         vertex 1.986230e+000 -2.342884e-001 5.000000e-001
      endloop
   endfacet
   facet normal 9.962385e-001 -8.665390e-002 0.000000e+000
      outer loop
         vertex 1.986230e+000 -2.342884e-001 5.000000e-001
         vertex 2.000000e+000 2.449294e-016 2.000000e+000
         vertex 1.979643e+000 -2.846297e-001 2.000000e+000
      endloop
   endfacet
   facet normal 9.909902e-001 -1.339342e-001 0.000000e+000
      outer loop
         vertex 1.986230e+000 -2.342884e-001 5.000000e-001
         vertex 1.979643e+000 -2.846297e-001 2.000000e+000
         vertex 1.979643e+000 -2.846297e-001 0.000000e+000
      endloop
   endfacet
   facet normal 9.819355e-001 -1.892159e-001 0.000000e+000
      outer loop
         vertex 1.979643e+000 -2.846297e-001 0.000000e+000
         vertex 1.979643e+000 -2.846297e-001 2.000000e+000
         vertex 1.918986e+000 -5.634651e-001 2.000000e+000
      endloop
   endfacet
   facet normal 9.718031e-001 -2.357940e-001 0.000000e+000
      outer loop
         vertex 1.979643e+000 -2.846297e-001 0.000000e+000
         vertex 1.918986e+000 -5.634651e-001 2.000000e+000
         vertex 1.918986e+000 -5.634651e-001 0.000000e+000
      endloop
   endfacet
   facet normal 9.450126e-001 -3.270339e-001 0.000000e+000
      outer loop
         vertex 1.918986e+000 -5.634651e-001 0.000000e+000
         vertex 1.918986e+000 -5.634651e-001 2.000000e+000
         vertex 1.819264e+000 -8.308300e-001 2.000000e+000
      endloop
   endfacet
   facet normal 9.283545e-001 -3.716959e-001 0.000000e+000
      outer loop
         vertex 1.918986e+000 -5.634651e-001 0.000000e+000
         vertex 1.819264e+000 -8.308300e-001 2.000000e+000
         vertex 1.819264e+000 -8.308300e-001 0.000000e+000
      endloop
   endfacet
   facet normal 8.888519e-001 -4.581946e-001 0.000000e+000
      outer loop
         vertex 1.819264e+000 -8.308300e-001 0.000000e+000
         vertex 1.819264e+000 -8.308300e-001 2.000000e+000
         vertex 1.682507e+000 -1.081282e+000 2.000000e+000
      endloop
   endfacet
   facet normal 8.660074e-001 -5.000312e-001 0.000000e+000
      outer loop
         vertex 1.819264e+000 -8.308300e-001 0.000000e+000
         vertex 1.682507e+000 -1.081282e+000 2.000000e+000
         vertex 1.682507e+000 -1.081282e+000 0.000000e+000
      endloop
   endfacet
   facet normal 8.145968e-001 -5.800276e-001 0.000000e+000
      outer loop
         vertex 1.682507e+000 -1.081282e+000 0.000000e+000
         vertex 1.682507e+000 -1.081282e+000 2.000000e+000
         vertex 1.511499e+000 -1.309721e+000 2.000000e+000
      endloop
   endfacet
   facet normal 7.860308e-001 -6.181873e-001 0.000000e+000
      outer loop
         vertex 1.682507e+000 -1.081282e+000 0.000000e+000
         vertex 1.511499e+000 -1.309721e+000 2.000000e+000
         vertex 1.511499e+000 -1.309721e+000 0.000000e+000
      endloop
   endfacet
   facet normal 7.237589e-001 -6.900530e-001 0.000000e+000
      outer loop
         vertex 1.511499e+000 -1.309721e+000 0.000000e+000
         vertex 1.511499e+000 -1.309721e+000 2.000000e+000
         vertex 1.309721e+000 -1.511499e+000 2.000000e+000
      endloop
   endfacet
   facet normal 6.900530e-001 -7.237589e-001 0.000000e+000
      outer loop
         vertex 1.511499e+000 -1.309721e+000 0.000000e+000
         vertex 1.309721e+000 -1.511499e+000 2.000000e+000
         vertex 1.309721e+000 -1.511499e+000 0.000000e+000
      endloop
   endfacet
   facet normal 6.181873e-001 -7.860308e-001 0.000000e+000
      outer loop
         vertex 1.309721e+000 -1.511499e+000 0.000000e+000
         vertex 1.309721e+000 -1.511499e+000 2.000000e+000
         vertex 1.081282e+000 -1.682507e+000 2.000000e+000
      endloop
   endfacet
   facet normal 5.800276e-001 -8.145968e-001 0.000000e+000
      outer loop
         vertex 1.309721e+000 -1.511499e+000 0.000000e+000
         vertex 1.081282e+000 -1.682507e+000 2.000000e+000
         vertex 1.081282e+000 -1.682507e+000 0.000000e+000
      endloop
   endfacet
   facet normal 5.000312e-001 -8.660074e-001 0.000000e+000
      outer loop
         vertex 1.081282e+000 -1.682507e+000 0.000000e+000
         vertex 1.081282e+000 -1.682507e+000 2.000000e+000
         vertex 8.308300e-001 -1.819264e+000 2.000000e+000
      endloop
   endfacet
   facet normal 4.581946e-001 -8.888519e-001 0.000000e+000
      outer loop
         vertex 1.081282e+000 -1.682507e+000 0.000000e+000
         vertex 8.308300e-001 -1.819264e+000 2.000000e+000
         vertex 8.308300e-001 -1.819264e+000 0.000000e+000
      endloop
   endfacet
   facet normal 3.716959e-001 -9.283545e-001 0.000000e+000
      outer loop
         vertex 8.308300e-001 -1.819264e+000 0.000000e+000
         vertex 8.308300e-001 -1.819264e+000 2.000000e+000
         vertex 5.634651e-001 -1.918986e+000 2.000000e+000
      endloop
   endfacet
   facet normal 3.270340e-001 -9.450126e-001 0.000000e+000
      outer loop
         vertex 8.308300e-001 -1.819264e+000 0.000000e+000
         vertex 5.634651e-001 -1.918986e+000 2.000000e+000
         vertex 5.634651e-001 -1.918986e+000 0.000000e+000
      endloop
   endfacet
   facet normal 2.357940e-001 -9.718031e-001 0.000000e+000
      outer loop
         vertex 5.634651e-001 -1.918986e+000 0.000000e+000
         vertex 5.634651e-001 -1.918986e+000 2.000000e+000
         vertex 2.846297e-001 -1.979643e+000 2.000000e+000
      endloop
   endfacet
   facet normal 1.892159e-001 -9.819355e-001 0.000000e+000
      outer loop
         vertex 5.634651e-001 -1.918986e+000 0.000000e+000
         vertex 2.846297e-001 -1.979643e+000 2.000000e+000
         vertex 2.846297e-001 -1.979643e+000 0.000000e+000
      endloop
   endfacet
   facet normal 9.509189e-002 -9.954685e-001 0.000000e+000
      outer loop
         vertex 2.846297e-001 -1.979643e+000 0.000000e+000
         vertex 2.846297e-001 -1.979643e+000 2.000000e+000
         vertex 3.673940e-016 -2.000000e+000 2.000000e+000
      endloop
   endfacet
   facet normal 4.754595e-002 -9.988691e-001 0.000000e+000
      outer loop
         vertex 2.846297e-001 -1.979643e+000 0.000000e+000
         vertex 3.673940e-016 -2.000000e+000 2.000000e+000
         vertex 3.673940e-016 -2.000000e+000 0.000000e+000
      endloop
   endfacet
   facet normal -4.754595e-002 -9.988691e-001 0.000000e+000
      outer loop
         vertex 3.673940e-016 -2.000000e+000 0.000000e+000
         vertex 3.673940e-016 -2.000000e+000 2.000000e+000
         vertex -2.846297e-001 -1.979643e+000 2.000000e+000
      endloop
   endfacet
   facet normal -9.509189e-002 -9.954685e-001 0.000000e+000
      outer loop
         vertex 3.673940e-016 -2.000000e+000 0.000000e+000
         vertex -2.846297e-001 -1.979643e+000 2.000000e+000
         vertex -2.846297e-001 -1.979643e+000 0.000000e+000
      endloop
   endfacet
   facet normal -1.892159e-001 -9.819355e-001 0.000000e+000
      outer loop
         vertex -2.846297e-001 -1.979643e+000 0.000000e+000
         vertex -2.846297e-001 -1.979643e+000 2.000000e+000
         vertex -5.634651e-001 -1.918986e+000 2.000000e+000
      endloop
   endfacet
   facet normal -2.357940e-001 -9.718031e-001 0.000000e+000
      outer loop
         vertex -2.846297e-001 -1.979643e+000 0.000000e+000
         vertex -5.634651e-001 -1.918986e+000 2.000000e+000
         vertex -5.634651e-001 -1.918986e+000 0.000000e+000
      endloop
   endfacet
   facet normal -3.270339e-001 -9.450126e-001 0.000000e+000
      outer loop
         vertex -5.634651e-001 -1.918986e+000 0.000000e+000
         vertex -5.634651e-001 -1.918986e+000 2.000000e+000
         vertex -8.308300e-001 -1.819264e+000 2.000000e+000
      endloop
   endfacet
   facet normal -3.716959e-001 -9.283545e-001 0.000000e+000
      outer loop
         vertex -5.634651e-001 -1.918986e+000 0.000000e+000
         vertex -8.308300e-001 -1.819264e+000 2.000000e+000
         vertex -8.308300e-001 -1.819264e+000 0.000000e+000
      endloop
   endfacet
   facet normal -4.581946e-001 -8.888519e-001 0.000000e+000
      outer loop
         vertex -8.308300e-001 -1.819264e+000 0.000000e+000
         vertex -8.308300e-001 -1.819264e+000 2.000000e+000
         vertex -1.081282e+000 -1.682507e+000 2.000000e+000
      endloop
   endfacet
   facet normal -5.000312e-001 -8.660074e-001 0.000000e+000
      outer loop
         vertex -8.308300e-001 -1.819264e+000 0.000000e+000
         vertex -1.081282e+000 -1.682507e+000 2.000000e+000
         vertex -1.081282e+000 -1.682507e+000 0.000000e+000
      endloop
   endfacet
   facet normal -5.800276e-001 -8.145968e-001 0.000000e+000
      outer loop
         vertex -1.081282e+000 -1.682507e+000 0.000000e+000
         vertex -1.081282e+000 -1.682507e+000 2.000000e+000
         vertex -1.309721e+000 -1.511499e+000 2.000000e+000
      endloop
   endfacet
   facet normal -6.181873e-001 -7.860308e-001 0.000000e+000
      outer loop
         vertex -1.081282e+000 -1.682507e+000 0.000000e+000
         vertex -1.309721e+000 -1.511499e+000 2.000000e+000
         vertex -1.309721e+000 -1.511499e+000 0.000000e+000
      endloop
   endfacet
   facet normal -6.900530e-001 -7.237589e-001 0.000000e+000
      outer loop
         vertex -1.309721e+000 -1.511499e+000 0.000000e+000
         vertex -1.309721e+000 -1.511499e+000 2.000000e+000
         vertex -1.511499e+000 -1.309721e+000 2.000000e+000
      endloop
   endfacet
   facet normal -7.237589e-001 -6.900530e-001 0.000000e+000
      outer loop
         vertex -1.309721e+000 -1.511499e+000 0.000000e+000
         vertex -1.511499e+000 -1.309721e+000 2.000000e+000
         vertex -1.511499e+000 -1.309721e+000 0.000000e+000
      endloop
   endfacet
   facet normal -7.860308e-001 -6.181873e-001 0.000000e+000
      outer loop
         vertex -1.511499e+000 -1.309721e+000 0.000000e+000
         vertex -1.511499e+000 -1.309721e+000 2.000000e+000
         vertex -1.682507e+000 -1.081282e+000 2.000000e+000
      endloop
   endfacet
   facet normal -8.145968e-001 -5.800276e-001 0.000000e+000
      outer loop
         vertex -1.511499e+000 -1.309721e+000 0.000000e+000
         vertex -1.682507e+000 -1.081282e+000 2.000000e+000
         vertex -1.682507e+000 -1.081282e+000 0.000000e+000
      endloop
   endfacet
   facet normal -8.660074e-001 -5.000312e-001 0.000000e+000
      outer loop
         vertex -1.682507e+000 -1.081282e+000 0.000000e+000
         vertex -1.682507e+000 -1.081282e+000 2.000000e+000
         vertex -1.819264e+000 -8.308300e-001 2.000000e+000
      endloop
   endfacet
   facet normal -8.888519e-001 -4.581946e-001 0.000000e+000
      outer loop
         vertex -1.682507e+000 -1.081282e+000 0.000000e+000
         vertex -1.819264e+000 -8.308300e-001 2.000000e+000
         vertex -1.819264e+000 -8.308300e-001 0.000000e+000
      endloop
   endfacet
   facet normal -9.283545e-001 -3.716959e-001 0.000000e+000
      outer loop
         vertex -1.819264e+000 -8.308300e-001 0.000000e+000
         vertex -1.819264e+000 -8.308300e-001 2.000000e+000
         vertex -1.918986e+000 -5.634651e-001 2.000000e+000
      endloop
   endfacet
   facet normal -9.450126e-001 -3.270340e-001 0.000000e+000
      outer loop
         vertex -1.819264e+000 -8.308300e-001 0.000000e+000
         vertex -1.918986e+000 -5.634651e-001 2.000000e+000
         vertex -1.918986e+000 -5.634651e-001 0.000000e+000
      endloop
   endfacet
   facet normal -9.718031e-001 -2.357940e-001 0.000000e+000
      outer loop
         vertex -1.918986e+000 -5.634651e-001 0.000000e+000
         vertex -1.918986e+000 -5.634651e-001 2.000000e+000
         vertex -1.979643e+000 -2.846297e-001 2.000000e+000
      endloop
   endfacet
   facet normal -9.819355e-001 -1.892159e-001 0.000000e+000
      outer loop
         vertex -1.918986e+000 -5.634651e-001 0.000000e+000
         vertex -1.979643e+000 -2.846297e-001 2.000000e+000
         vertex -1.979643e+000 -2.846297e-001 0.000000e+000
      endloop
   endfacet
   facet normal -9.920881e-001 -1.255434e-001 0.000000e+000
      outer loop
         vertex -1.986230e+000 -2.342884e-001 0.000000e+000
         vertex -1.979643e+000 -2.846297e-001 0.000000e+000
         vertex -1.986230e+000 -2.342884e-001 5.000000e-001
      endloop
   endfacet
   facet normal -9.909902e-001 -1.339342e-001 0.000000e+000
      outer loop
         vertex -1.986230e+000 -2.342884e-001 5.000000e-001
         vertex -1.979643e+000 -2.846297e-001 0.000000e+000
         vertex -1.979643e+000 -2.846297e-001 2.000000e+000
      endloop
   endfacet
   facet normal -9.962385e-001 -8.665390e-002 0.000000e+000
      outer loop
         vertex -1.986230e+000 -2.342884e-001 5.000000e-001
         vertex -1.979643e+000 -2.846297e-001 2.000000e+000
         vertex -2.000000e+000 0.000000e+000 5.000000e-001
      endloop
   endfacet
   facet normal -9.988691e-001 -4.754595e-002 0.000000e+000
      outer loop
         vertex -2.000000e+000 0.000000e+000 5.000000e-001
         vertex -1.979643e+000 -2.846297e-001 2.000000e+000
         vertex -2.000000e+000 0.000000e+000 2.000000e+000
      endloop
   endfacet
   facet normal -9.992350e-001 3.910794e-002 0.000000e+000
      outer loop
         vertex -2.000000e+000 0.000000e+000 5.000000e-001
         vertex -2.000000e+000 0.000000e+000 2.000000e+000
         vertex -1.986230e+000 2.342884e-001 5.000000e-001
      endloop
   endfacet
   facet normal -9.962385e-001 8.665390e-002 0.000000e+000
      outer loop
         vertex -1.986230e+000 2.342884e-001 5.000000e-001
         vertex -2.000000e+000 0.000000e+000 2.000000e+000
         vertex -1.979643e+000 2.846297e-001 2.000000e+000
      endloop
   endfacet
   facet normal -9.909902e-001 1.339342e-001 0.000000e+000
      outer loop
         vertex -1.986230e+000 2.342884e-001 5.000000e-001
         vertex -1.979643e+000 2.846297e-001 2.000000e+000
         vertex -1.979643e+000 2.846297e-001 0.000000e+000
      endloop
   endfacet
   facet normal -9.819355e-001 1.892159e-001 0.000000e+000
      outer loop
         vertex -1.979643e+000 2.846297e-001 0.000000e+000
         vertex -1.979643e+000 2.846297e-001 2.000000e+000
         vertex -1.918986e+000 5.634651e-001 2.000000e+000
      endloop
   endfacet
   facet normal -9.718031e-001 2.357940e-001 0.000000e+000
      outer loop
         vertex -1.979643e+000 2.846297e-001 0.000000e+000
         vertex -1.918986e+000 5.634651e-001 2.000000e+000
         vertex -1.918986e+000 5.634651e-001 0.000000e+000
      endloop
   endfacet
   facet normal -9.450126e-001 3.270339e-001 0.000000e+000
      outer loop
         vertex -1.918986e+000 5.634651e-001 0.000000e+000
         vertex -1.918986e+000 5.634651e-001 2.000000e+000
         vertex -1.819264e+000 8.308300e-001 2.000000e+000
      endloop
   endfacet
   facet normal -9.283545e-001 3.716959e-001 0.000000e+000
      outer loop
         vertex -1.918986e+000 5.634651e-001 0.000000e+000
         vertex -1.819264e+000 8.308300e-001 2.000000e+000
         vertex -1.819264e+000 8.308300e-001 0.000000e+000
      endloop
   endfacet
   facet normal -8.888519e-001 4.581946e-001 0.000000e+000
      outer loop
         vertex -1.819264e+000 8.308300e-001 0.000000e+000
         vertex -1.819264e+000 8.308300e-001 2.000000e+000
         vertex -1.682507e+000 1.081282e+000 2.000000e+000
      endloop
   endfacet
   facet normal -8.660074e-001 5.000312e-001 0.000000e+000
      outer loop
         vertex -1.819264e+000 8.308300e-001 0.000000e+000
         vertex -1.682507e+000 1.081282e+000 2.000000e+000
         vertex -1.682507e+000 1.081282e+000 0.000000e+000
      endloop
   endfacet
   facet normal -8.145968e-001 5.800276e-001 0.000000e+000
      outer loop
         vertex -1.682507e+000 1.081282e+000 0.000000e+000
         vertex -1.682507e+000 1.081282e+000 2.000000e+000
         vertex -1.511499e+000 1.309721e+000 2.000000e+000
      endloop
   endfacet
   facet normal -7.860308e-001 6.181873e-001 0.000000e+000
      outer loop
         vertex -1.682507e+000 1.081282e+000 0.000000e+000
         vertex -1.511499e+000 1.309721e+000 2.000000e+000
         vertex -1.511499e+000 1.309721e+000 0.000000e+000
      endloop
   endfacet
   facet normal -7.237589e-001 6.900530e-001 0.000000e+000
      outer loop
         vertex -1.511499e+000 1.309721e+000 0.000000e+000
         vertex -1.511499e+000 1.309721e+000 2.000000e+000
         vertex -1.309721e+000 1.511499e+000 2.000000e+000
      endloop
   endfacet
   facet normal -6.900530e-001 7.237589e-001 0.000000e+000
      outer loop
         vertex -1.511499e+000 1.309721e+000 0.000000e+000
         vertex -1.309721e+000 1.511499e+000 2.000000e+000
         vertex -1.309721e+000 1.511499e+000 0.000000e+000
      endloop
   endfacet
   facet normal -6.181873e-001 7.860308e-001 0.000000e+000
      outer loop
         vertex -1.309721e+000 1.511499e+000 0.000000e+000
         vertex -1.309721e+000 1.511499e+000 2.000000e+000
         vertex -1.081282e+000 1.682507e+000 2.000000e+000
      endloop
   endfacet
   facet normal -5.800276e-001 8.145968e-001 0.000000e+000
      outer loop
         vertex -1.309721e+000 1.511499e+000 0.000000e+000
         vertex -1.081282e+000 1.682507e+000 2.000000e+000
         vertex -1.081282e+000 1.682507e+000 0.000000e+000
      endloop
   endfacet
   facet normal -5.000312e-001 8.660074e-001 0.000000e+000
      outer loop
         vertex -1.081282e+000 1.682507e+000 0.000000e+000
         vertex -1.081282e+000 1.682507e+000 2.000000e+000
         vertex -8.308300e-001 1.819264e+000 2.000000e+000
      endloop
   endfacet
   facet normal -4.581946e-001 8.888519e-001 0.000000e+000
      outer loop
         vertex -1.081282e+000 1.682507e+000 0.000000e+000
         vertex -8.308300e-001 1.819264e+000 2.000000e+000
         vertex -8.308300e-001 1.819264e+000 0.000000e+000
      endloop
   endfacet
   facet normal -3.716959e-001 9.283545e-001 0.000000e+000
      outer loop
         vertex -8.308300e-001 1.819264e+000 0.000000e+000
         vertex -8.308300e-001 1.819264e+000 2.000000e+000
         vertex -5.634651e-001 1.918986e+000 2.000000e+000
      endloop
   endfacet
   facet normal -3.270340e-001 9.450126e-001 0.000000e+000
      outer loop
         vertex -8.308300e-001 1.819264e+000 0.000000e+000
         vertex -5.634651e-001 1.918986e+000 2.000000e+000
         vertex -5.634651e-001 1.918986e+000 0.000000e+000
      endloop
   endfacet
   facet normal -2.357940e-001 9.718031e-001 0.000000e+000
      outer loop
         vertex -5.634651e-001 1.918986e+000 0.000000e+000
         vertex -5.634651e-001 1.918986e+000 2.000000e+000
         vertex -2.846297e-001 1.979643e+000 2.000000e+000
      endloop
   endfacet
   facet normal -1.892159e-001 9.819355e-001 0.000000e+000
      outer loop
         vertex -5.634651e-001 1.918986e+000 0.000000e+000
         vertex -2.846297e-001 1.979643e+000 2.000000e+000
         vertex -2.846297e-001 1.979643e+000 0.000000e+000
      endloop
   endfacet
   facet normal -9.509189e-002 9.954685e-001 0.000000e+000
      outer loop
         vertex -2.846297e-001 1.979643e+000 0.000000e+000
         vertex -2.846297e-001 1.979643e+000 2.000000e+000
         vertex 3.216245e-016 2.000000e+000 2.000000e+000
      endloop
   endfacet
   facet normal -4.754595e-002 9.988691e-001 0.000000e+000
      outer loop
         vertex -2.846297e-001 1.979643e+000 0.000000e+000
         vertex 3.216245e-016 2.000000e+000 2.000000e+000
         vertex 3.216245e-016 2.000000e+000 0.000000e+000
      endloop
   endfacet
   facet normal 4.754595e-002 9.988691e-001 0.000000e+000
      outer loop
         vertex 3.216245e-016 2.000000e+000 0.000000e+000
         vertex 3.216245e-016 2.000000e+000 2.000000e+000
         vertex 2.846297e-001 1.979643e+000 2.000000e+000
      endloop
   endfacet
   facet normal 9.509189e-002 9.954685e-001 0.000000e+000
      outer loop
         vertex 3.216245e-016 2.000000e+000 0.000000e+000
         vertex 2.846297e-001 1.979643e+000 2.000000e+000
         vertex 2.846297e-001 1.979643e+000 0.000000e+000
      endloop
   endfacet
   facet normal 1.892159e-001 9.819355e-001 0.000000e+000
      outer loop
         vertex 2.846297e-001 1.979643e+000 0.000000e+000
         vertex 2.846297e-001 1.979643e+000 2.000000e+000
         vertex 5.634651e-001 1.918986e+000 2.000000e+000
      endloop
   endfacet
   facet normal 2.357940e-001 9.718031e-001 0.000000e+000
      outer loop
         vertex 2.846297e-001 1.979643e+000 0.000000e+000
         vertex 5.634651e-001 1.918986e+000 2.000000e+000
         vertex 5.634651e-001 1.918986e+000 0.000000e+000
      endloop
   endfacet
   facet normal 3.270339e-001 9.450126e-001 0.000000e+000
      outer loop
         vertex 5.634651e-001 1.918986e+000 0.000000e+000
         vertex 5.634651e-001 1.918986e+000 2.000000e+000
         vertex 8.308300e-001 1.819264e+000 2.000000e+000
      endloop
   endfacet
   facet normal 3.716959e-001 9.283545e-001 0.000000e+000
      outer loop
         vertex 5.634651e-001 1.918986e+000 0.000000e+000
         vertex 8.308300e-001 1.819264e+000 2.000000e+000
         vertex 8.308300e-001 1.819264e+000 0.000000e+000
      endloop
   endfacet
   facet normal 4.581946e-001 8.888519e-001 0.000000e+000
      outer loop
         vertex 8.308300e-001 1.819264e+000 0.000000e+000
         vertex 8.308300e-001 1.819264e+000 2.000000e+000
         vertex 1.081282e+000 1.682507e+000 2.000000e+000
      endloop
   endfacet
   facet normal 5.000312e-001 8.660074e-001 0.000000e+000
      outer loop
         vertex 8.308300e-001 1.819264e+000 0.000000e+000
         vertex 1.081282e+000 1.682507e+000 2.000000e+000
         vertex 1.081282e+000 1.682507e+000 0.000000e+000
      endloop
   endfacet
   facet normal 5.800276e-001 8.145968e-001 0.000000e+000
      outer loop
         vertex 1.081282e+000 1.682507e+000 0.000000e+000
         vertex 1.081282e+000 1.682507e+000 2.000000e+000
         vertex 1.309721e+000 1.511499e+000 2.000000e+000
      endloop
   endfacet
   facet normal 6.181873e-001 7.860308e-001 0.000000e+000
      outer loop
         vertex 1.081282e+000 1.682507e+000 0.000000e+000
         vertex 1.309721e+000 1.511499e+000 2.000000e+000
         vertex 1.309721e+000 1.511499e+000 0.000000e+000
      endloop
   endfacet
   facet normal 6.900530e-001 7.237589e-001 0.000000e+000
      outer loop
         vertex 1.309721e+000 1.511499e+000 0.000000e+000
         vertex 1.309721e+000 1.511499e+000 2.000000e+000
         vertex 1.511499e+000 1.309721e+000 2.000000e+000
      endloop
   endfacet
   facet normal 7.237589e-001 6.900530e-001 0.000000e+000
      outer loop
         vertex 1.309721e+000 1.511499e+000 0.000000e+000
         vertex 1.511499e+000 1.309721e+000 2.000000e+000
         vertex 1.511499e+000 1.309721e+000 0.000000e+000
      endloop
   endfacet
   facet normal 7.860308e-001 6.181873e-001 0.000000e+000
      outer loop
         vertex 1.511499e+000 1.309721e+000 0.000000e+000
         vertex 1.511499e+000 1.309721e+000 2.000000e+000
         vertex 1.682507e+000 1.081282e+000 2.000000e+000
      endloop
   endfacet
   facet normal 8.145968e-001 5.800276e-001 0.000000e+000
      outer loop
         vertex 1.511499e+000 1.309721e+000 0.000000e+000
         vertex 1.682507e+000 1.081282e+000 2.000000e+000
         vertex 1.682507e+000 1.081282e+000 0.000000e+000
      endloop
   endfacet
   facet normal 8.660074e-001 5.000312e-001 0.000000e+000
      outer loop
         vertex 1.682507e+000 1.081282e+000 0.000000e+000
         vertex 1.682507e+000 1.081282e+000 2.000000e+000
         vertex 1.819264e+000 8.308300e-001 2.000000e+000
      endloop
   endfacet
   facet normal 8.888519e-001 4.581946e-001 0.000000e+000
      outer loop
         vertex 1.682507e+000 1.081282e+000 0.000000e+000
         vertex 1.819264e+000 8.308300e-001 2.000000e+000
         vertex 1.819264e+000 8.308300e-001 0.000000e+000
      endloop
   endfacet
   facet normal 9.283545e-001 3.716959e-001 0.000000e+000
      outer loop
         vertex 1.819264e+000 8.308300e-001 0.000000e+000
         vertex 1.819264e+000 8.308300e-001 2.000000e+000
         vertex 1.918986e+000 5.634651e-001 2.000000e+000
      endloop
   endfacet
   facet normal 9.450126e-001 3.270340e-001 0.000000e+000
      outer loop
         vertex 1.819264e+000 8.308300e-001 0.000000e+000
         vertex 1.918986e+000 5.634651e-001 2.000000e+000
         vertex 1.918986e+000 5.634651e-001 0.000000e+000
      endloop
   endfacet
   facet normal 9.718031e-001 2.357940e-001 0.000000e+000
      outer loop
         vertex 1.918986e+000 5.634651e-001 0.000000e+000
         vertex 1.918986e+000 5.634651e-001 2.000000e+000
         vertex 1.979643e+000 2.846297e-001 2.000000e+000
      endloop
   endfacet
   facet normal 9.819355e-001 1.892159e-001 0.000000e+000
      outer loop
         vertex 1.918986e+000 5.634651e-001 0.000000e+000
         vertex 1.979643e+000 2.846297e-001 2.000000e+000
         vertex 1.979643e+000 2.846297e-001 0.000000e+000
      endloop
   endfacet
   facet normal 9.909902e-001 1.339342e-001 0.000000e+000
      outer loop
         vertex 1.979643e+000 2.846297e-001 0.000000e+000
         vertex 1.979643e+000 2.846297e-001 2.000000e+000
         vertex 1.986230e+000 2.342884e-001 5.000000e-001
      endloop
   endfacet
   facet normal 9.920881e-001 1.255434e-001 0.000000e+000
      outer loop
         vertex 1.979643e+000 2.846297e-001 0.000000e+000
         vertex 1.986230e+000 2.342884e-001 5.000000e-001
         vertex 1.986230e+000 2.342884e-001 0.000000e+000
      endloop
   endfacet
   facet normal 0.000000e+000 0.000000e+000 1.000000e+000
      outer loop
         vertex -4.847134e-001 -1.206256e+000 2.000000e+000
         vertex -5.634651e-001 -1.918986e+000 2.000000e+000
         vertex -2.738830e-001 -1.270822e+000 2.000000e+000
      endloop
   endfacet
   facet normal 0.000000e+000 0.000000e+000 1.000000e+000
      outer loop
         vertex -2.738830e-001 -1.270822e+000 2.000000e+000
         vertex -5.634651e-001 -1.918986e+000 2.000000e+000
         vertex -2.846297e-001 -1.979643e+000 2.000000e+000
      endloop
   endfacet
   facet normal 0.000000e+000 0.000000e+000 1.000000e+000
      outer loop
         vertex -2.738830e-001 -1.270822e+000 2.000000e+000
         vertex -2.846297e-001 -1.979643e+000 2.000000e+000
         vertex -5.517356e-002 -1.298829e+000 2.000000e+000
      endloop
   endfacet
   facet normal 0.000000e+000 0.000000e+000 1.000000e+000
      outer loop
         vertex -5.517356e-002 -1.298829e+000 2.000000e+000
         vertex -2.846297e-001 -1.979643e+000 2.000000e+000
         vertex 3.673940e-016 -2.000000e+000 2.000000e+000
      endloop
   endfacet
   facet normal 0.000000e+000 0.000000e+000 1.000000e+000
      outer loop
         vertex -5.517356e-002 -1.298829e+000 2.000000e+000
         vertex 3.673940e-016 -2.000000e+000 2.000000e+000
         vertex 1.651232e-001 -1.289471e+000 2.000000e+000
      endloop
   endfacet
   facet normal 0.000000e+000 0.000000e+000 1.000000e+000
      outer loop
         vertex 1.651232e-001 -1.289471e+000 2.000000e+000
         vertex 3.673940e-016 -2.000000e+000 2.000000e+000
         vertex 2.846297e-001 -1.979643e+000 2.000000e+000
      endloop
   endfacet
   facet normal 0.000000e+000 0.000000e+000 1.000000e+000
      outer loop
         vertex 1.651232e-001 -1.289471e+000 2.000000e+000
         vertex 2.846297e-001 -1.979643e+000 2.000000e+000
         vertex 3.806696e-001 -1.243017e+000 2.000000e+000
      endloop
   endfacet
   facet normal 0.000000e+000 0.000000e+000 1.000000e+000
      outer loop
         vertex 3.806696e-001 -1.243017e+000 2.000000e+000
         vertex 2.846297e-001 -1.979643e+000 2.000000e+000
         vertex 5.634651e-001 -1.918986e+000 2.000000e+000
      endloop
   endfacet
   facet normal 0.000000e+000 0.000000e+000 1.000000e+000
      outer loop
         vertex 3.806696e-001 -1.243017e+000 2.000000e+000
         vertex 5.634651e-001 -1.918986e+000 2.000000e+000
         vertex 5.852649e-001 -1.160804e+000 2.000000e+000
      endloop
   endfacet
   facet normal 0.000000e+000 0.000000e+000 1.000000e+000
      outer loop
         vertex 5.852649e-001 -1.160804e+000 2.000000e+000
         vertex 5.634651e-001 -1.918986e+000 2.000000e+000
         vertex 8.308300e-001 -1.819264e+000 2.000000e+000
      endloop
   endfacet
   facet normal 0.000000e+000 0.000000e+000 1.000000e+000
      outer loop
         vertex 5.852649e-001 -1.160804e+000 2.000000e+000
         vertex 8.308300e-001 -1.819264e+000 2.000000e+000
         vertex 7.730231e-001 -1.045196e+000 2.000000e+000
      endloop
   endfacet
   facet normal 0.000000e+000 0.000000e+000 1.000000e+000
      outer loop
         vertex -1.225741e+000 -4.330817e-001 2.000000e+000
         vertex -1.819264e+000 -8.308300e-001 2.000000e+000
         vertex -1.134918e+000 -6.340034e-001 2.000000e+000
      endloop
   endfacet
   facet normal 0.000000e+000 0.000000e+000 1.000000e+000
      outer loop
         vertex -1.134918e+000 -6.340034e-001 2.000000e+000
         vertex -1.819264e+000 -8.308300e-001 2.000000e+000
         vertex -1.682507e+000 -1.081282e+000 2.000000e+000
      endloop
   endfacet
   facet normal 0.000000e+000 0.000000e+000 1.000000e+000
      outer loop
         vertex -1.134918e+000 -6.340034e-001 2.000000e+000
         vertex -1.682507e+000 -1.081282e+000 2.000000e+000
         vertex -1.011446e+000 -8.166860e-001 2.000000e+000
      endloop
   endfacet
   facet normal 0.000000e+000 0.000000e+000 1.000000e+000
      outer loop
         vertex -1.011446e+000 -8.166860e-001 2.000000e+000
         vertex -1.682507e+000 -1.081282e+000 2.000000e+000
         vertex -1.511499e+000 -1.309721e+000 2.000000e+000
      endloop
   endfacet
   facet normal 0.000000e+000 0.000000e+000 1.000000e+000
      outer loop
         vertex -1.011446e+000 -8.166860e-001 2.000000e+000
         vertex -1.511499e+000 -1.309721e+000 2.000000e+000
         vertex -8.588771e-001 -9.758740e-001 2.000000e+000
      endloop
   endfacet
   facet normal 0.000000e+000 0.000000e+000 1.000000e+000
      outer loop
         vertex -8.588771e-001 -9.758740e-001 2.000000e+000
         vertex -1.511499e+000 -1.309721e+000 2.000000e+000
         vertex -1.309721e+000 -1.511499e+000 2.000000e+000
      endloop
   endfacet
   facet normal 0.000000e+000 0.000000e+000 1.000000e+000
      outer loop
         vertex -8.588771e-001 -9.758740e-001 2.000000e+000
         vertex -1.309721e+000 -1.511499e+000 2.000000e+000
         vertex -6.815995e-001 -1.106988e+000 2.000000e+000
      endloop
   endfacet
   facet normal 0.000000e+000 0.000000e+000 1.000000e+000
      outer loop
         vertex -6.815995e-001 -1.106988e+000 2.000000e+000
         vertex -1.309721e+000 -1.511499e+000 2.000000e+000
         vertex -1.081282e+000 -1.682507e+000 2.000000e+000
      endloop
   endfacet
   facet normal 0.000000e+000 0.000000e+000 1.000000e+000
      outer loop
         vertex -6.815995e-001 -1.106988e+000 2.000000e+000
         vertex -1.081282e+000 -1.682507e+000 2.000000e+000
         vertex -4.847134e-001 -1.206256e+000 2.000000e+000
      endloop
   endfacet
   facet normal 0.000000e+000 0.000000e+000 1.000000e+000
      outer loop
         vertex -4.847134e-001 -1.206256e+000 2.000000e+000
         vertex -1.081282e+000 -1.682507e+000 2.000000e+000
         vertex -8.308300e-001 -1.819264e+000 2.000000e+000
      endloop
   endfacet
   facet normal 0.000000e+000 0.000000e+000 1.000000e+000
      outer loop
         vertex -4.847134e-001 -1.206256e+000 2.000000e+000
         vertex -8.308300e-001 -1.819264e+000 2.000000e+000
         vertex -5.634651e-001 -1.918986e+000 2.000000e+000
      endloop
   endfacet
   facet normal 0.000000e+000 0.000000e+000 1.000000e+000
      outer loop
         vertex -1.134918e+000 6.340034e-001 2.000000e+000
         vertex -1.819264e+000 8.308300e-001 2.000000e+000
         vertex -1.225741e+000 4.330817e-001 2.000000e+000
      endloop
   endfacet
   facet normal 0.000000e+000 0.000000e+000 1.000000e+000
      outer loop
         vertex -1.225741e+000 4.330817e-001 2.000000e+000
         vertex -1.819264e+000 8.308300e-001 2.000000e+000
         vertex -1.918986e+000 5.634651e-001 2.000000e+000
      endloop
   endfacet
   facet normal 0.000000e+000 0.000000e+000 1.000000e+000
      outer loop
         vertex -1.225741e+000 4.330817e-001 2.000000e+000
         vertex -1.918986e+000 5.634651e-001 2.000000e+000
         vertex -1.281301e+000 2.197011e-001 2.000000e+000
      endloop
   endfacet
   facet normal 0.000000e+000 0.000000e+000 1.000000e+000
      outer loop
         vertex -1.281301e+000 2.197011e-001 2.000000e+000
         vertex -1.918986e+000 5.634651e-001 2.000000e+000
         vertex -1.979643e+000 2.846297e-001 2.000000e+000
      endloop
   endfacet
   facet normal 0.000000e+000 0.000000e+000 1.000000e+000
      outer loop
         vertex -1.281301e+000 2.197011e-001 2.000000e+000
         vertex -1.979643e+000 2.846297e-001 2.000000e+000
         vertex -1.300000e+000 0.000000e+000 2.000000e+000
      endloop
   endfacet
   facet normal 0.000000e+000 0.000000e+000 1.000000e+000
      outer loop
         vertex -1.300000e+000 0.000000e+000 2.000000e+000
         vertex -1.979643e+000 2.846297e-001 2.000000e+000
         vertex -2.000000e+000 0.000000e+000 2.000000e+000
      endloop
   endfacet
   facet normal 0.000000e+000 0.000000e+000 1.000000e+000
      outer loop
         vertex -1.300000e+000 0.000000e+000 2.000000e+000
         vertex -2.000000e+000 0.000000e+000 2.000000e+000
         vertex -1.281301e+000 -2.197011e-001 2.000000e+000
      endloop
   endfacet
   facet normal 0.000000e+000 0.000000e+000 1.000000e+000
      outer loop
         vertex -1.281301e+000 -2.197011e-001 2.000000e+000
         vertex -2.000000e+000 0.000000e+000 2.000000e+000
         vertex -1.979643e+000 -2.846297e-001 2.000000e+000
      endloop
   endfacet
   facet normal 0.000000e+000 0.000000e+000 1.000000e+000
      outer loop
         vertex -1.281301e+000 -2.197011e-001 2.000000e+000
         vertex -1.979643e+000 -2.846297e-001 2.000000e+000
         vertex -1.225741e+000 -4.330817e-001 2.000000e+000
      endloop
   endfacet
   facet normal 0.000000e+000 0.000000e+000 1.000000e+000
      outer loop
         vertex -1.225741e+000 -4.330817e-001 2.000000e+000
         vertex -1.979643e+000 -2.846297e-001 2.000000e+000
         vertex -1.918986e+000 -5.634651e-001 2.000000e+000
      endloop
   endfacet
   facet normal 0.000000e+000 0.000000e+000 1.000000e+000
      outer loop
         vertex -1.225741e+000 -4.330817e-001 2.000000e+000
         vertex -1.918986e+000 -5.634651e-001 2.000000e+000
         vertex -1.819264e+000 -8.308300e-001 2.000000e+000
      endloop
   endfacet
   facet normal 0.000000e+000 0.000000e+000 1.000000e+000
      outer loop
         vertex -2.738830e-001 1.270822e+000 2.000000e+000
         vertex -5.634651e-001 1.918986e+000 2.000000e+000
         vertex -4.847134e-001 1.206256e+000 2.000000e+000
      endloop
   endfacet
   facet normal 0.000000e+000 0.000000e+000 1.000000e+000
      outer loop
         vertex -4.847134e-001 1.206256e+000 2.000000e+000
         vertex -5.634651e-001 1.918986e+000 2.000000e+000
         vertex -8.308300e-001 1.819264e+000 2.000000e+000
      endloop
   endfacet
   facet normal 0.000000e+000 0.000000e+000 1.000000e+000
      outer loop
         vertex -4.847134e-001 1.206256e+000 2.000000e+000
         vertex -8.308300e-001 1.819264e+000 2.000000e+000
         vertex -6.815995e-001 1.106988e+000 2.000000e+000
      endloop
   endfacet
   facet normal 0.000000e+000 0.000000e+000 1.000000e+000
      outer loop
         vertex -6.815995e-001 1.106988e+000 2.000000e+000
         vertex -8.308300e-001 1.819264e+000 2.000000e+000
         vertex -1.081282e+000 1.682507e+000 2.000000e+000
      endloop
   endfacet
   facet normal 0.000000e+000 0.000000e+000 1.000000e+000
      outer loop
         vertex -6.815995e-001 1.106988e+000 2.000000e+000
         vertex -1.081282e+000 1.682507e+000 2.000000e+000
         vertex -8.588771e-001 9.758740e-001 2.000000e+000
      endloop
   endfacet
   facet normal 0.000000e+000 0.000000e+000 1.000000e+000
      outer loop
         vertex -8.588771e-001 9.758740e-001 2.000000e+000
         vertex -1.081282e+000 1.682507e+000 2.000000e+000
         vertex -1.309721e+000 1.511499e+000 2.000000e+000
      endloop
   endfacet
   facet normal 0.000000e+000 0.000000e+000 1.000000e+000
      outer loop
         vertex -8.588771e-001 9.758740e-001 2.000000e+000
         vertex -1.309721e+000 1.511499e+000 2.000000e+000
         vertex -1.011446e+000 8.166860e-001 2.000000e+000
      endloop
   endfacet
   facet normal 0.000000e+000 0.000000e+000 1.000000e+000
      outer loop
         vertex -1.011446e+000 8.166860e-001 2.000000e+000
         vertex -1.309721e+000 1.511499e+000 2.000000e+000
         vertex -1.511499e+000 1.309721e+000 2.000000e+000
      endloop
   endfacet
   facet normal 0.000000e+000 0.000000e+000 1.000000e+000
      outer loop
         vertex -1.011446e+000 8.166860e-001 2.000000e+000
         vertex -1.511499e+000 1.309721e+000 2.000000e+000
         vertex -1.134918e+000 6.340034e-001 2.000000e+000
      endloop
   endfacet
   facet normal 0.000000e+000 0.000000e+000 1.000000e+000
      outer loop
         vertex -1.134918e+000 6.340034e-001 2.000000e+000
         vertex -1.511499e+000 1.309721e+000 2.000000e+000
         vertex -1.682507e+000 1.081282e+000 2.000000e+000
      endloop
   endfacet
   facet normal 0.000000e+000 0.000000e+000 1.000000e+000
      outer loop
         vertex -1.134918e+000 6.340034e-001 2.000000e+000
         vertex -1.682507e+000 1.081282e+000 2.000000e+000
         vertex -1.819264e+000 8.308300e-001 2.000000e+000
      endloop
   endfacet
   facet normal 0.000000e+000 0.000000e+000 1.000000e+000
      outer loop
         vertex 9.385430e-001 8.995205e-001 2.000000e+000
         vertex 1.309721e+000 1.511499e+000 2.000000e+000
         vertex 7.730231e-001 1.045196e+000 2.000000e+000
      endloop
   endfacet
   facet normal 0.000000e+000 0.000000e+000 1.000000e+000
      outer loop
         vertex 7.730231e-001 1.045196e+000 2.000000e+000
         vertex 1.309721e+000 1.511499e+000 2.000000e+000
         vertex 1.081282e+000 1.682507e+000 2.000000e+000
      endloop
   endfacet
   facet normal 0.000000e+000 0.000000e+000 1.000000e+000
      outer loop
         vertex 7.730231e-001 1.045196e+000 2.000000e+000
         vertex 1.081282e+000 1.682507e+000 2.000000e+000
         vertex 5.852649e-001 1.160804e+000 2.000000e+000
      endloop
   endfacet
   facet normal 0.000000e+000 0.000000e+000 1.000000e+000
      outer loop
         vertex 5.852649e-001 1.160804e+000 2.000000e+000
         vertex 1.081282e+000 1.682507e+000 2.000000e+000
         vertex 8.308300e-001 1.819264e+000 2.000000e+000
      endloop
   endfacet
   facet normal 0.000000e+000 0.000000e+000 1.000000e+000
      outer loop
         vertex 5.852649e-001 1.160804e+000 2.000000e+000
         vertex 8.308300e-001 1.819264e+000 2.000000e+000
         vertex 3.806696e-001 1.243017e+000 2.000000e+000
      endloop
   endfacet
   facet normal 0.000000e+000 0.000000e+000 1.000000e+000
      outer loop
         vertex 3.806696e-001 1.243017e+000 2.000000e+000
         vertex 8.308300e-001 1.819264e+000 2.000000e+000
         vertex 5.634651e-001 1.918986e+000 2.000000e+000
      endloop
   endfacet
   facet normal 0.000000e+000 0.000000e+000 1.000000e+000
      outer loop
         vertex 3.806696e-001 1.243017e+000 2.000000e+000
         vertex 5.634651e-001 1.918986e+000 2.000000e+000
         vertex 1.651232e-001 1.289471e+000 2.000000e+000
      endloop
   endfacet
   facet normal 0.000000e+000 0.000000e+000 1.000000e+000
      outer loop
         vertex 1.651232e-001 1.289471e+000 2.000000e+000
         vertex 5.634651e-001 1.918986e+000 2.000000e+000
         vertex 2.846297e-001 1.979643e+000 2.000000e+000
      endloop
   endfacet
   facet normal 0.000000e+000 0.000000e+000 1.000000e+000
      outer loop
         vertex 1.651232e-001 1.289471e+000 2.000000e+000
         vertex 2.846297e-001 1.979643e+000 2.000000e+000
         vertex -5.517356e-002 1.298829e+000 2.000000e+000
      endloop
   endfacet
   facet normal 0.000000e+000 0.000000e+000 1.000000e+000
      outer loop
         vertex -5.517356e-002 1.298829e+000 2.000000e+000
         vertex 2.846297e-001 1.979643e+000 2.000000e+000
         vertex 3.216245e-016 2.000000e+000 2.000000e+000
      endloop
   endfacet
   facet normal 0.000000e+000 0.000000e+000 1.000000e+000
      outer loop
         vertex -5.517356e-002 1.298829e+000 2.000000e+000
         vertex 3.216245e-016 2.000000e+000 2.000000e+000
         vertex -2.738830e-001 1.270822e+000 2.000000e+000
      endloop
   endfacet
   facet normal 0.000000e+000 0.000000e+000 1.000000e+000
      outer loop
         vertex -2.738830e-001 1.270822e+000 2.000000e+000
         vertex 3.216245e-016 2.000000e+000 2.000000e+000
         vertex -2.846297e-001 1.979643e+000 2.000000e+000
      endloop
   endfacet
   facet normal 0.000000e+000 0.000000e+000 1.000000e+000
      outer loop
         vertex -2.738830e-001 1.270822e+000 2.000000e+000
         vertex -2.846297e-001 1.979643e+000 2.000000e+000
         vertex -5.634651e-001 1.918986e+000 2.000000e+000
      endloop
   endfacet
   facet normal 0.000000e+000 0.000000e+000 1.000000e+000
      outer loop
         vertex 8.308300e-001 -1.819264e+000 2.000000e+000
         vertex 1.081282e+000 -1.682507e+000 2.000000e+000
         vertex 7.730231e-001 -1.045196e+000 2.000000e+000
      endloop
   endfacet
   facet normal 0.000000e+000 0.000000e+000 1.000000e+000
      outer loop
         vertex 7.730231e-001 -1.045196e+000 2.000000e+000
         vertex 1.081282e+000 -1.682507e+000 2.000000e+000
         vertex 1.309721e+000 -1.511499e+000 2.000000e+000
      endloop
   endfacet
   facet normal 0.000000e+000 0.000000e+000 1.000000e+000
      outer loop
         vertex 7.730231e-001 -1.045196e+000 2.000000e+000
         vertex 1.309721e+000 -1.511499e+000 2.000000e+000
         vertex 9.385430e-001 -8.995205e-001 2.000000e+000
      endloop
   endfacet
   facet normal 0.000000e+000 0.000000e+000 1.000000e+000
      outer loop
         vertex 9.385430e-001 -8.995205e-001 2.000000e+000
         vertex 1.309721e+000 -1.511499e+000 2.000000e+000
         vertex 1.511499e+000 -1.309721e+000 2.000000e+000
      endloop
   endfacet
   facet normal 0.000000e+000 0.000000e+000 1.000000e+000
      outer loop
         vertex 9.385430e-001 -8.995205e-001 2.000000e+000
         vertex 1.511499e+000 -1.309721e+000 2.000000e+000
         vertex 1.077063e+000 -7.279673e-001 2.000000e+000
      endloop
   endfacet
   facet normal 0.000000e+000 0.000000e+000 1.000000e+000
      outer loop
         vertex 1.077063e+000 -7.279673e-001 2.000000e+000
         vertex 1.511499e+000 -1.309721e+000 2.000000e+000
         vertex 1.682507e+000 -1.081282e+000 2.000000e+000
      endloop
   endfacet
   facet normal 0.000000e+000 0.000000e+000 1.000000e+000
      outer loop
         vertex 1.077063e+000 -7.279673e-001 2.000000e+000
         vertex 1.682507e+000 -1.081282e+000 2.000000e+000
         vertex 1.184597e+000 -5.354716e-001 2.000000e+000
      endloop
   endfacet
   facet normal 0.000000e+000 0.000000e+000 1.000000e+000
      outer loop
         vertex 1.184597e+000 -5.354716e-001 2.000000e+000
         vertex 1.682507e+000 -1.081282e+000 2.000000e+000
         vertex 1.819264e+000 -8.308300e-001 2.000000e+000
      endloop
   endfacet
   facet normal 0.000000e+000 0.000000e+000 1.000000e+000
      outer loop
         vertex 1.184597e+000 -5.354716e-001 2.000000e+000
         vertex 1.819264e+000 -8.308300e-001 2.000000e+000
         vertex 1.258053e+000 -3.275715e-001 2.000000e+000
      endloop
   endfacet
   facet normal 0.000000e+000 0.000000e+000 1.000000e+000
      outer loop
         vertex 1.258053e+000 -3.275715e-001 2.000000e+000
         vertex 1.819264e+000 -8.308300e-001 2.000000e+000
         vertex 1.918986e+000 -5.634651e-001 2.000000e+000
      endloop
   endfacet
   facet normal 0.000000e+000 0.000000e+000 1.000000e+000
      outer loop
         vertex 1.258053e+000 -3.275715e-001 2.000000e+000
         vertex 1.918986e+000 -5.634651e-001 2.000000e+000
         vertex 1.295317e+000 -1.102477e-001 2.000000e+000
      endloop
   endfacet
   facet normal 0.000000e+000 0.000000e+000 1.000000e+000
      outer loop
         vertex 1.295317e+000 -1.102477e-001 2.000000e+000
         vertex 1.918986e+000 -5.634651e-001 2.000000e+000
         vertex 1.979643e+000 -2.846297e-001 2.000000e+000
      endloop
   endfacet
   facet normal 0.000000e+000 0.000000e+000 1.000000e+000
      outer loop
         vertex 1.295317e+000 -1.102477e-001 2.000000e+000
         vertex 1.979643e+000 -2.846297e-001 2.000000e+000
         vertex 1.300000e+000 4.776123e-016 2.000000e+000
      endloop
   endfacet
   facet normal 0.000000e+000 0.000000e+000 1.000000e+000
      outer loop
         vertex 1.300000e+000 4.776123e-016 2.000000e+000
         vertex 1.979643e+000 -2.846297e-001 2.000000e+000
         vertex 2.000000e+000 2.449294e-016 2.000000e+000
      endloop
   endfacet
   facet normal 0.000000e+000 0.000000e+000 1.000000e+000
      outer loop
         vertex 1.300000e+000 4.776123e-016 2.000000e+000
         vertex 2.000000e+000 2.449294e-016 2.000000e+000
         vertex 1.295317e+000 1.102477e-001 2.000000e+000
      endloop
   endfacet
   facet normal 0.000000e+000 0.000000e+000 1.000000e+000
      outer loop
         vertex 1.295317e+000 1.102477e-001 2.000000e+000
         vertex 2.000000e+000 2.449294e-016 2.000000e+000
         vertex 1.979643e+000 2.846297e-001 2.000000e+000
      endloop
   endfacet
   facet normal 0.000000e+000 0.000000e+000 1.000000e+000
      outer loop
         vertex 1.295317e+000 1.102477e-001 2.000000e+000
         vertex 1.979643e+000 2.846297e-001 2.000000e+000
         vertex 1.258053e+000 3.275715e-001 2.000000e+000
      endloop
   endfacet
   facet normal 0.000000e+000 0.000000e+000 1.000000e+000
      outer loop
         vertex 1.258053e+000 3.275715e-001 2.000000e+000
         vertex 1.979643e+000 2.846297e-001 2.000000e+000
         vertex 1.918986e+000 5.634651e-001 2.000000e+000
      endloop
   endfacet
   facet normal 0.000000e+000 0.000000e+000 1.000000e+000
      outer loop
         vertex 1.258053e+000 3.275715e-001 2.000000e+000
         vertex 1.918986e+000 5.634651e-001 2.000000e+000
         vertex 1.184597e+000 5.354716e-001 2.000000e+000
      endloop
   endfacet
   facet normal 0.000000e+000 0.000000e+000 1.000000e+000
      outer loop
         vertex 1.184597e+000 5.354716e-001 2.000000e+000
         vertex 1.918986e+000 5.634651e-001 2.000000e+000
         vertex 1.819264e+000 8.308300e-001 2.000000e+000
      endloop
   endfacet
   facet normal 0.000000e+000 0.000000e+000 1.000000e+000
      outer loop
         vertex 1.184597e+000 5.354716e-001 2.000000e+000
         vertex 1.819264e+000 8.308300e-001 2.000000e+000
         vertex 1.077063e+000 7.279673e-001 2.000000e+000
      endloop
   endfacet
   facet normal 0.000000e+000 0.000000e+000 1.000000e+000
      outer loop
         vertex 1.077063e+000 7.279673e-001 2.000000e+000
         vertex 1.819264e+000 8.308300e-001 2.000000e+000
         vertex 1.682507e+000 1.081282e+000 2.000000e+000
      endloop
   endfacet
   facet normal 0.000000e+000 0.000000e+000 1.000000e+000
      outer loop
         vertex 1.077063e+000 7.279673e-001 2.000000e+000
         vertex 1.682507e+000 1.081282e+000 2.000000e+000
         vertex 9.385430e-001 8.995205e-001 2.000000e+000
      endloop
   endfacet
   facet normal 0.000000e+000 0.000000e+000 1.000000e+000
      outer loop
         vertex 9.385430e-001 8.995205e-001 2.000000e+000
         vertex 1.682507e+000 1.081282e+000 2.000000e+000
         vertex 1.511499e+000 1.309721e+000 2.000000e+000
      endloop
   endfacet
   facet normal 0.000000e+000 0.000000e+000 1.000000e+000
      outer loop
         vertex 9.385430e-001 8.995205e-001 2.000000e+000
         vertex 1.511499e+000 1.309721e+000 2.000000e+000
         vertex 1.309721e+000 1.511499e+000 2.000000e+000
      endloop
   endfacet
   facet normal 0.000000e+000 0.000000e+000 -1.000000e+000
      outer loop
         vertex -1.819264e+000 8.308300e-001 0.000000e+000
         vertex 1.918986e+000 5.634651e-001 0.000000e+000
         vertex -1.918986e+000 5.634651e-001 0.000000e+000
      endloop
   endfacet
   facet normal 0.000000e+000 0.000000e+000 -1.000000e+000
      outer loop
         vertex -1.918986e+000 5.634651e-001 0.000000e+000
         vertex 1.918986e+000 5.634651e-001 0.000000e+000
         vertex 1.979643e+000 2.846297e-001 0.000000e+000
      endloop
   endfacet
   facet normal 0.000000e+000 0.000000e+000 -1.000000e+000
      outer loop
         vertex -1.918986e+000 5.634651e-001 0.000000e+000
         vertex 1.979643e+000 2.846297e-001 0.000000e+000
         vertex -1.979643e+000 2.846297e-001 0.000000e+000
      endloop
   endfacet
   facet normal 0.000000e+000 0.000000e+000 -1.000000e+000
      outer loop
         vertex -1.979643e+000 2.846297e-001 0.000000e+000
         vertex 1.979643e+000 2.846297e-001 0.000000e+000
         vertex 1.986230e+000 2.342884e-001 0.000000e+000
      endloop
   endfacet
   facet normal 0.000000e+000 0.000000e+000 -1.000000e+000
      outer loop
         vertex -1.979643e+000 2.846297e-001 0.000000e+000
         vertex 1.986230e+000 2.342884e-001 0.000000e+000
         vertex -1.986230e+000 2.342884e-001 0.000000e+000
      endloop
   endfacet
   facet normal 0.000000e+000 0.000000e+000 -1.000000e+000
      outer loop
         vertex -1.819264e+000 8.308300e-001 0.000000e+000
         vertex -1.682507e+000 1.081282e+000 0.000000e+000
         vertex 1.918986e+000 5.634651e-001 0.000000e+000
      endloop
   endfacet
   facet normal 0.000000e+000 0.000000e+000 -1.000000e+000
      outer loop
         vertex 1.918986e+000 5.634651e-001 0.000000e+000
         vertex -1.682507e+000 1.081282e+000 0.000000e+000
         vertex -1.511499e+000 1.309721e+000 0.000000e+000
      endloop
   endfacet
   facet normal 0.000000e+000 0.000000e+000 -1.000000e+000
      outer loop
         vertex 1.918986e+000 5.634651e-001 0.000000e+000
         vertex -1.511499e+000 1.309721e+000 0.000000e+000
         vertex -1.309721e+000 1.511499e+000 0.000000e+000
      endloop
   endfacet
   facet normal 0.000000e+000 0.000000e+000 -1.000000e+000
      outer loop
         vertex 1.918986e+000 5.634651e-001 0.000000e+000
         vertex -5.634651e-001 1.918986e+000 0.000000e+000
         vertex -2.846297e-001 1.979643e+000 0.000000e+000
      endloop
   endfacet
   facet normal 0.000000e+000 0.000000e+000 -1.000000e+000
      outer loop
         vertex -2.846297e-001 1.979643e+000 0.000000e+000
         vertex 3.216245e-016 2.000000e+000 0.000000e+000
         vertex 1.918986e+000 5.634651e-001 0.000000e+000
      endloop
   endfacet
   facet normal 0.000000e+000 0.000000e+000 -1.000000e+000
      outer loop
         vertex 1.918986e+000 5.634651e-001 0.000000e+000
         vertex 3.216245e-016 2.000000e+000 0.000000e+000
         vertex 2.846297e-001 1.979643e+000 0.000000e+000
      endloop
   endfacet
   facet normal 0.000000e+000 0.000000e+000 -1.000000e+000
      outer loop
         vertex 1.918986e+000 5.634651e-001 0.000000e+000
         vertex 2.846297e-001 1.979643e+000 0.000000e+000
         vertex 5.634651e-001 1.918986e+000 0.000000e+000
      endloop
   endfacet
   facet normal 0.000000e+000 0.000000e+000 -1.000000e+000
      outer loop
         vertex 5.634651e-001 1.918986e+000 0.000000e+000
         vertex 8.308300e-001 1.819264e+000 0.000000e+000
         vertex 1.918986e+000 5.634651e-001 0.000000e+000
      endloop
   endfacet
   facet normal 0.000000e+000 0.000000e+000 -1.000000e+000
      outer loop
         vertex 1.918986e+000 5.634651e-001 0.000000e+000
         vertex 8.308300e-001 1.819264e+000 0.000000e+000
         vertex 1.081282e+000 1.682507e+000 0.000000e+000
      endloop
   endfacet
   facet normal 0.000000e+000 0.000000e+000 -1.000000e+000
      outer loop
         vertex 1.918986e+000 5.634651e-001 0.000000e+000
         vertex 1.081282e+000 1.682507e+000 0.000000e+000
         vertex 1.309721e+000 1.511499e+000 0.000000e+000
      endloop
   endfacet
   facet normal 0.000000e+000 0.000000e+000 -1.000000e+000
      outer loop
         vertex -1.309721e+000 1.511499e+000 0.000000e+000
         vertex -1.081282e+000 1.682507e+000 0.000000e+000
         vertex 1.918986e+000 5.634651e-001 0.000000e+000
      endloop
   endfacet
   facet normal 0.000000e+000 0.000000e+000 -1.000000e+000
      outer loop
         vertex 1.918986e+000 5.634651e-001 0.000000e+000
         vertex -1.081282e+000 1.682507e+000 0.000000e+000
         vertex -8.308300e-001 1.819264e+000 0.000000e+000
      endloop
   endfacet
   facet normal 0.000000e+000 0.000000e+000 -1.000000e+000
      outer loop
         vertex 1.918986e+000 5.634651e-001 0.000000e+000
         vertex -8.308300e-001 1.819264e+000 0.000000e+000
         vertex -5.634651e-001 1.918986e+000 0.000000e+000
      endloop
   endfacet
   facet normal 0.000000e+000 0.000000e+000 -1.000000e+000
      outer loop
         vertex 1.309721e+000 1.511499e+000 0.000000e+000
         vertex 1.511499e+000 1.309721e+000 0.000000e+000
         vertex 1.918986e+000 5.634651e-001 0.000000e+000
      endloop
   endfacet
   facet normal 0.000000e+000 0.000000e+000 -1.000000e+000
      outer loop
         vertex 1.918986e+000 5.634651e-001 0.000000e+000
         vertex 1.511499e+000 1.309721e+000 0.000000e+000
         vertex 1.682507e+000 1.081282e+000 0.000000e+000
      endloop
   endfacet
   facet normal 0.000000e+000 0.000000e+000 -1.000000e+000
      outer loop
         vertex 1.918986e+000 5.634651e-001 0.000000e+000
         vertex 1.682507e+000 1.081282e+000 0.000000e+000
         vertex 1.819264e+000 8.308300e-001 0.000000e+000
      endloop
   endfacet
   facet normal 9.995998e-001 2.829130e-002 0.000000e+000
      outer loop
         vertex 1.295317e+000 1.102477e-001 9.500000e+000
         vertex 1.300000e+000 4.776123e-016 9.500000e+000
         vertex 1.300000e+000 1.592041e-016 2.000000e+000
      endloop
   endfacet
   facet normal 9.995998e-001 -2.829130e-002 0.000000e+000
      outer loop
         vertex 1.300000e+000 1.592041e-016 2.000000e+000
         vertex 1.300000e+000 4.776123e-016 9.500000e+000
         vertex 1.295317e+000 -1.102477e-001 2.000000e+000
      endloop
   endfacet
   facet normal 9.983979e-001 -5.658260e-002 0.000000e+000
      outer loop
         vertex 1.300000e+000 4.776123e-016 9.500000e+000
         vertex 1.295317e+000 -1.102477e-001 9.500000e+000
         vertex 1.295317e+000 -1.102477e-001 2.000000e+000
      endloop
   endfacet
   facet normal 9.900123e-001 -1.409813e-001 0.000000e+000
      outer loop
         vertex 1.295317e+000 -1.102477e-001 2.000000e+000
         vertex 1.295317e+000 -1.102477e-001 9.500000e+000
         vertex 1.258053e+000 -3.275715e-001 9.500000e+000
      endloop
   endfacet
   facet normal 9.804267e-001 -1.968844e-001 0.000000e+000
      outer loop
         vertex 1.295317e+000 -1.102477e-001 2.000000e+000
         vertex 1.258053e+000 -3.275715e-001 9.500000e+000
         vertex 1.258053e+000 -3.275715e-001 2.000000e+000
      endloop
   endfacet
   facet normal 9.519458e-001 -3.062663e-001 0.000000e+000
      outer loop
         vertex 1.258053e+000 -3.275715e-001 2.000000e+000
         vertex 1.258053e+000 -3.275715e-001 9.500000e+000
         vertex 1.184597e+000 -5.354716e-001 9.500000e+000
      endloop
   endfacet
   facet normal 9.330506e-001 -3.597453e-001 0.000000e+000
      outer loop
         vertex 1.258053e+000 -3.275715e-001 2.000000e+000
         vertex 1.184597e+000 -5.354716e-001 9.500000e+000
         vertex 1.184597e+000 -5.354716e-001 2.000000e+000
      endloop
   endfacet
   facet normal 8.864937e-001 -4.627406e-001 0.000000e+000
      outer loop
         vertex 1.184597e+000 -5.354716e-001 2.000000e+000
         vertex 1.184597e+000 -5.354716e-001 9.500000e+000
         vertex 1.077063e+000 -7.279673e-001 9.500000e+000
      endloop
   endfacet
   facet normal 8.588322e-001 -5.122570e-001 0.000000e+000
      outer loop
         vertex 1.184597e+000 -5.354716e-001 2.000000e+000
         vertex 1.077063e+000 -7.279673e-001 9.500000e+000
         vertex 1.077063e+000 -7.279673e-001 2.000000e+000
      endloop
   endfacet
   facet normal 7.955388e-001 -6.059027e-001 0.000000e+000
      outer loop
         vertex 1.077063e+000 -7.279673e-001 2.000000e+000
         vertex 1.077063e+000 -7.279673e-001 9.500000e+000
         vertex 9.385430e-001 -8.995205e-001 9.500000e+000
      endloop
   endfacet
   facet normal 7.599069e-001 -6.500320e-001 0.000000e+000
      outer loop
         vertex 1.077063e+000 -7.279673e-001 2.000000e+000
         vertex 9.385430e-001 -8.995205e-001 9.500000e+000
         vertex 9.385430e-001 -8.995205e-001 2.000000e+000
      endloop
   endfacet
   facet normal 6.816977e-001 -7.316340e-001 0.000000e+000
      outer loop
         vertex 9.385430e-001 -8.995205e-001 2.000000e+000
         vertex 9.385430e-001 -8.995205e-001 9.500000e+000
         vertex 7.730231e-001 -1.045196e+000 9.500000e+000
      endloop
   endfacet
   facet normal 6.391203e-001 -7.691067e-001 0.000000e+000
      outer loop
         vertex 9.385430e-001 -8.995205e-001 2.000000e+000
         vertex 7.730231e-001 -1.045196e+000 9.500000e+000
         vertex 7.730231e-001 -1.045196e+000 2.000000e+000
      endloop
   endfacet
   facet normal 5.482453e-001 -8.363176e-001 0.000000e+000
      outer loop
         vertex 7.730231e-001 -1.045196e+000 2.000000e+000
         vertex 7.730231e-001 -1.045196e+000 9.500000e+000
         vertex 5.852649e-001 -1.160804e+000 9.500000e+000
      endloop
   endfacet
   facet normal 4.999475e-001 -8.660557e-001 0.000000e+000
      outer loop
         vertex 7.730231e-001 -1.045196e+000 2.000000e+000
         vertex 5.852649e-001 -1.160804e+000 9.500000e+000
         vertex 5.852649e-001 -1.160804e+000 2.000000e+000
      endloop
   endfacet
   facet normal 3.990209e-001 -9.169418e-001 0.000000e+000
      outer loop
         vertex 5.852649e-001 -1.160804e+000 2.000000e+000
         vertex 5.852649e-001 -1.160804e+000 9.500000e+000
         vertex 3.806696e-001 -1.243017e+000 9.500000e+000
      endloop
   endfacet
   facet normal 3.463921e-001 -9.380898e-001 0.000000e+000
      outer loop
         vertex 5.852649e-001 -1.160804e+000 2.000000e+000
         vertex 3.806696e-001 -1.243017e+000 9.500000e+000
         vertex 3.806696e-001 -1.243017e+000 2.000000e+000
      endloop
   endfacet
   facet normal 2.383175e-001 -9.711873e-001 0.000000e+000
      outer loop
         vertex 3.806696e-001 -1.243017e+000 2.000000e+000
         vertex 3.806696e-001 -1.243017e+000 9.500000e+000
         vertex 1.651232e-001 -1.289471e+000 9.500000e+000
      endloop
   endfacet
   facet normal 1.828716e-001 -9.831368e-001 0.000000e+000
      outer loop
         vertex 3.806696e-001 -1.243017e+000 2.000000e+000
         vertex 1.651232e-001 -1.289471e+000 9.500000e+000
         vertex 1.651232e-001 -1.289471e+000 2.000000e+000
      endloop
   endfacet
   facet normal 7.075802e-002 -9.974935e-001 0.000000e+000
      outer loop
         vertex 1.651232e-001 -1.289471e+000 2.000000e+000
         vertex 1.651232e-001 -1.289471e+000 9.500000e+000
         vertex -5.517356e-002 -1.298829e+000 9.500000e+000
      endloop
   endfacet
   facet normal 1.409025e-002 -9.999007e-001 0.000000e+000
      outer loop
         vertex 1.651232e-001 -1.289471e+000 2.000000e+000
         vertex -5.517356e-002 -1.298829e+000 9.500000e+000
         vertex -5.517356e-002 -1.298829e+000 2.000000e+000
      endloop
   endfacet
   facet normal -9.883699e-002 -9.951036e-001 0.000000e+000
      outer loop
         vertex -5.517356e-002 -1.298829e+000 2.000000e+000
         vertex -5.517356e-002 -1.298829e+000 9.500000e+000
         vertex -2.738830e-001 -1.270822e+000 9.500000e+000
      endloop
   endfacet
   facet normal -1.550965e-001 -9.878993e-001 0.000000e+000
      outer loop
         vertex -5.517356e-002 -1.298829e+000 2.000000e+000
         vertex -2.738830e-001 -1.270822e+000 9.500000e+000
         vertex -2.738830e-001 -1.270822e+000 2.000000e+000
      endloop
   endfacet
   facet normal -2.655886e-001 -9.640865e-001 0.000000e+000
      outer loop
         vertex -2.738830e-001 -1.270822e+000 2.000000e+000
         vertex -2.738830e-001 -1.270822e+000 9.500000e+000
         vertex -4.847134e-001 -1.206256e+000 9.500000e+000
      endloop
   endfacet
   facet normal -3.198213e-001 -9.474779e-001 0.000000e+000
      outer loop
         vertex -2.738830e-001 -1.270822e+000 2.000000e+000
         vertex -4.847134e-001 -1.206256e+000 9.500000e+000
         vertex -4.847134e-001 -1.206256e+000 2.000000e+000
      endloop
   endfacet
   facet normal -4.246998e-001 -9.053342e-001 0.000000e+000
      outer loop
         vertex -4.847134e-001 -1.206256e+000 2.000000e+000
         vertex -4.847134e-001 -1.206256e+000 9.500000e+000
         vertex -6.815995e-001 -1.106988e+000 9.500000e+000
      endloop
   endfacet
   facet normal -4.753455e-001 -8.797992e-001 0.000000e+000
      outer loop
         vertex -4.847134e-001 -1.206256e+000 2.000000e+000
         vertex -6.815995e-001 -1.106988e+000 9.500000e+000
         vertex -6.815995e-001 -1.106988e+000 2.000000e+000
      endloop
   endfacet
   facet normal -5.715931e-001 -8.205372e-001 0.000000e+000
      outer loop
         vertex -6.815995e-001 -1.106988e+000 2.000000e+000
         vertex -6.815995e-001 -1.106988e+000 9.500000e+000
         vertex -8.588771e-001 -9.758740e-001 9.500000e+000
      endloop
   endfacet
   facet normal -6.171949e-001 -7.868103e-001 0.000000e+000
      outer loop
         vertex -6.815995e-001 -1.106988e+000 2.000000e+000
         vertex -8.588771e-001 -9.758740e-001 9.500000e+000
         vertex -8.588771e-001 -9.758740e-001 2.000000e+000
      endloop
   endfacet
   facet normal -7.020428e-001 -7.121348e-001 0.000000e+000
      outer loop
         vertex -8.588771e-001 -9.758740e-001 2.000000e+000
         vertex -8.588771e-001 -9.758740e-001 9.500000e+000
         vertex -1.011446e+000 -8.166860e-001 9.500000e+000
      endloop
   endfacet
   facet normal -7.412888e-001 -6.711863e-001 0.000000e+000
      outer loop
         vertex -8.588771e-001 -9.758740e-001 2.000000e+000
         vertex -1.011446e+000 -8.166860e-001 9.500000e+000
         vertex -1.011446e+000 -8.166860e-001 2.000000e+000
      endloop
   endfacet
   facet normal -8.122959e-001 -5.832456e-001 0.000000e+000
      outer loop
         vertex -1.011446e+000 -8.166860e-001 2.000000e+000
         vertex -1.011446e+000 -8.166860e-001 9.500000e+000
         vertex -1.134918e+000 -6.340034e-001 9.500000e+000
      endloop
   endfacet
   facet normal -8.440570e-001 -5.362535e-001 0.000000e+000
      outer loop
         vertex -1.011446e+000 -8.166860e-001 2.000000e+000
         vertex -1.134918e+000 -6.340034e-001 9.500000e+000
         vertex -1.134918e+000 -6.340034e-001 2.000000e+000
      endloop
   endfacet
   facet normal -8.991807e-001 -4.375775e-001 0.000000e+000
      outer loop
         vertex -1.134918e+000 -6.340034e-001 2.000000e+000
         vertex -1.134918e+000 -6.340034e-001 9.500000e+000
         vertex -1.225741e+000 -4.330817e-001 9.500000e+000
      endloop
   endfacet
   facet normal -9.225433e-001 -3.858936e-001 0.000000e+000
      outer loop
         vertex -1.134918e+000 -6.340034e-001 2.000000e+000
         vertex -1.225741e+000 -4.330817e-001 9.500000e+000
         vertex -1.225741e+000 -4.330817e-001 2.000000e+000
      endloop
   endfacet
   facet normal -9.601977e-001 -2.793211e-001 0.000000e+000
      outer loop
         vertex -1.225741e+000 -4.330817e-001 2.000000e+000
         vertex -1.225741e+000 -4.330817e-001 9.500000e+000
         vertex -1.281301e+000 -2.197011e-001 9.500000e+000
      endloop
   endfacet
   facet normal -9.744897e-001 -2.244324e-001 0.000000e+000
      outer loop
         vertex -1.225741e+000 -4.330817e-001 2.000000e+000
         vertex -1.281301e+000 -2.197011e-001 9.500000e+000
         vertex -1.281301e+000 -2.197011e-001 2.000000e+000
      endloop
   endfacet
   facet normal -9.935917e-001 -1.130291e-001 0.000000e+000
      outer loop
         vertex -1.281301e+000 -2.197011e-001 2.000000e+000
         vertex -1.281301e+000 -2.197011e-001 9.500000e+000
         vertex -1.300000e+000 0.000000e+000 9.500000e+000
      endloop
   endfacet
   facet normal -9.984018e-001 -5.651454e-002 0.000000e+000
      outer loop
         vertex -1.281301e+000 -2.197011e-001 2.000000e+000
         vertex -1.300000e+000 0.000000e+000 9.500000e+000
         vertex -1.300000e+000 0.000000e+000 2.000000e+000
      endloop
   endfacet
   facet normal -9.984018e-001 5.651454e-002 0.000000e+000
      outer loop
         vertex -1.300000e+000 0.000000e+000 2.000000e+000
         vertex -1.300000e+000 0.000000e+000 9.500000e+000
         vertex -1.281301e+000 2.197011e-001 9.500000e+000
      endloop
   endfacet
   facet normal -9.935917e-001 1.130291e-001 0.000000e+000
      outer loop
         vertex -1.300000e+000 0.000000e+000 2.000000e+000
         vertex -1.281301e+000 2.197011e-001 9.500000e+000
         vertex -1.281301e+000 2.197011e-001 2.000000e+000
      endloop
   endfacet
   facet normal -9.744897e-001 2.244324e-001 0.000000e+000
      outer loop
         vertex -1.281301e+000 2.197011e-001 2.000000e+000
         vertex -1.281301e+000 2.197011e-001 9.500000e+000
         vertex -1.225741e+000 4.330817e-001 9.500000e+000
      endloop
   endfacet
   facet normal -9.601977e-001 2.793211e-001 0.000000e+000
      outer loop
         vertex -1.281301e+000 2.197011e-001 2.000000e+000
         vertex -1.225741e+000 4.330817e-001 9.500000e+000
         vertex -1.225741e+000 4.330817e-001 2.000000e+000
      endloop
   endfacet
   facet normal -9.225433e-001 3.858936e-001 0.000000e+000
      outer loop
         vertex -1.225741e+000 4.330817e-001 2.000000e+000
         vertex -1.225741e+000 4.330817e-001 9.500000e+000
         vertex -1.134918e+000 6.340034e-001 9.500000e+000
      endloop
   endfacet
   facet normal -8.991807e-001 4.375775e-001 0.000000e+000
      outer loop
         vertex -1.225741e+000 4.330817e-001 2.000000e+000
         vertex -1.134918e+000 6.340034e-001 9.500000e+000
         vertex -1.134918e+000 6.340034e-001 2.000000e+000
      endloop
   endfacet
   facet normal -8.440570e-001 5.362535e-001 0.000000e+000
      outer loop
         vertex -1.134918e+000 6.340034e-001 2.000000e+000
         vertex -1.134918e+000 6.340034e-001 9.500000e+000
         vertex -1.011446e+000 8.166860e-001 9.500000e+000
      endloop
   endfacet
   facet normal -8.122959e-001 5.832456e-001 0.000000e+000
      outer loop
         vertex -1.134918e+000 6.340034e-001 2.000000e+000
         vertex -1.011446e+000 8.166860e-001 9.500000e+000
         vertex -1.011446e+000 8.166860e-001 2.000000e+000
      endloop
   endfacet
   facet normal -7.412888e-001 6.711863e-001 0.000000e+000
      outer loop
         vertex -1.011446e+000 8.166860e-001 2.000000e+000
         vertex -1.011446e+000 8.166860e-001 9.500000e+000
         vertex -8.588771e-001 9.758740e-001 9.500000e+000
      endloop
   endfacet
   facet normal -7.020428e-001 7.121348e-001 0.000000e+000
      outer loop
         vertex -1.011446e+000 8.166860e-001 2.000000e+000
         vertex -8.588771e-001 9.758740e-001 9.500000e+000
         vertex -8.588771e-001 9.758740e-001 2.000000e+000
      endloop
   endfacet
   facet normal -6.171949e-001 7.868103e-001 0.000000e+000
      outer loop
         vertex -8.588771e-001 9.758740e-001 2.000000e+000
         vertex -8.588771e-001 9.758740e-001 9.500000e+000
         vertex -6.815995e-001 1.106988e+000 9.500000e+000
      endloop
   endfacet
   facet normal -5.715931e-001 8.205372e-001 0.000000e+000
      outer loop
         vertex -8.588771e-001 9.758740e-001 2.000000e+000
         vertex -6.815995e-001 1.106988e+000 9.500000e+000
         vertex -6.815995e-001 1.106988e+000 2.000000e+000
      endloop
   endfacet
   facet normal -4.753455e-001 8.797992e-001 0.000000e+000
      outer loop
         vertex -6.815995e-001 1.106988e+000 2.000000e+000
         vertex -6.815995e-001 1.106988e+000 9.500000e+000
         vertex -4.847134e-001 1.206256e+000 9.500000e+000
      endloop
   endfacet
   facet normal -4.246998e-001 9.053342e-001 0.000000e+000
      outer loop
         vertex -6.815995e-001 1.106988e+000 2.000000e+000
         vertex -4.847134e-001 1.206256e+000 9.500000e+000
         vertex -4.847134e-001 1.206256e+000 2.000000e+000
      endloop
   endfacet
   facet normal -3.198213e-001 9.474779e-001 0.000000e+000
      outer loop
         vertex -4.847134e-001 1.206256e+000 2.000000e+000
         vertex -4.847134e-001 1.206256e+000 9.500000e+000
         vertex -2.738830e-001 1.270822e+000 9.500000e+000
      endloop
   endfacet
   facet normal -2.655886e-001 9.640865e-001 0.000000e+000
      outer loop
         vertex -4.847134e-001 1.206256e+000 2.000000e+000
         vertex -2.738830e-001 1.270822e+000 9.500000e+000
         vertex -2.738830e-001 1.270822e+000 2.000000e+000
      endloop
   endfacet
   facet normal -1.550965e-001 9.878993e-001 0.000000e+000
      outer loop
         vertex -2.738830e-001 1.270822e+000 2.000000e+000
         vertex -2.738830e-001 1.270822e+000 9.500000e+000
         vertex -5.517356e-002 1.298829e+000 9.500000e+000
      endloop
   endfacet
   facet normal -9.883699e-002 9.951036e-001 0.000000e+000
      outer loop
         vertex -2.738830e-001 1.270822e+000 2.000000e+000
         vertex -5.517356e-002 1.298829e+000 9.500000e+000
         vertex -5.517356e-002 1.298829e+000 2.000000e+000
      endloop
   endfacet
   facet normal 1.409025e-002 9.999007e-001 0.000000e+000
      outer loop
         vertex -5.517356e-002 1.298829e+000 2.000000e+000
         vertex -5.517356e-002 1.298829e+000 9.500000e+000
         vertex 1.651232e-001 1.289471e+000 9.500000e+000
      endloop
   endfacet
   facet normal 7.075802e-002 9.974935e-001 0.000000e+000
      outer loop
         vertex -5.517356e-002 1.298829e+000 2.000000e+000
         vertex 1.651232e-001 1.289471e+000 9.500000e+000
         vertex 1.651232e-001 1.289471e+000 2.000000e+000
      endloop
   endfacet
   facet normal 1.828716e-001 9.831368e-001 0.000000e+000
      outer loop
         vertex 1.651232e-001 1.289471e+000 2.000000e+000
         vertex 1.651232e-001 1.289471e+000 9.500000e+000
         vertex 3.806696e-001 1.243017e+000 9.500000e+000
      endloop
   endfacet
   facet normal 2.383175e-001 9.711873e-001 0.000000e+000
      outer loop
         vertex 1.651232e-001 1.289471e+000 2.000000e+000
         vertex 3.806696e-001 1.243017e+000 9.500000e+000
         vertex 3.806696e-001 1.243017e+000 2.000000e+000
      endloop
   endfacet
   facet normal 3.463921e-001 9.380898e-001 0.000000e+000
      outer loop
         vertex 3.806696e-001 1.243017e+000 2.000000e+000
         vertex 3.806696e-001 1.243017e+000 9.500000e+000
         vertex 5.852649e-001 1.160804e+000 9.500000e+000
      endloop
   endfacet
   facet normal 3.990209e-001 9.169418e-001 0.000000e+000
      outer loop
         vertex 3.806696e-001 1.243017e+000 2.000000e+000
         vertex 5.852649e-001 1.160804e+000 9.500000e+000
         vertex 5.852649e-001 1.160804e+000 2.000000e+000
      endloop
   endfacet
   facet normal 4.999475e-001 8.660557e-001 0.000000e+000
      outer loop
         vertex 5.852649e-001 1.160804e+000 2.000000e+000
         vertex 5.852649e-001 1.160804e+000 9.500000e+000
         vertex 7.730231e-001 1.045196e+000 9.500000e+000
      endloop
   endfacet
   facet normal 5.482453e-001 8.363176e-001 0.000000e+000
      outer loop
         vertex 5.852649e-001 1.160804e+000 2.000000e+000
         vertex 7.730231e-001 1.045196e+000 9.500000e+000
         vertex 7.730231e-001 1.045196e+000 2.000000e+000
      endloop
   endfacet
   facet normal 6.391203e-001 7.691067e-001 0.000000e+000
      outer loop
         vertex 7.730231e-001 1.045196e+000 2.000000e+000
         vertex 7.730231e-001 1.045196e+000 9.500000e+000
         vertex 9.385430e-001 8.995205e-001 9.500000e+000
      endloop
   endfacet
   facet normal 6.816977e-001 7.316340e-001 0.000000e+000
      outer loop
         vertex 7.730231e-001 1.045196e+000 2.000000e+000
         vertex 9.385430e-001 8.995205e-001 9.500000e+000
         vertex 9.385430e-001 8.995205e-001 2.000000e+000
      endloop
   endfacet
   facet normal 7.599069e-001 6.500320e-001 0.000000e+000
      outer loop
         vertex 9.385430e-001 8.995205e-001 2.000000e+000
         vertex 9.385430e-001 8.995205e-001 9.500000e+000
         vertex 1.077063e+000 7.279673e-001 9.500000e+000
      endloop
   endfacet
   facet normal 7.955388e-001 6.059027e-001 0.000000e+000
      outer loop
         vertex 9.385430e-001 8.995205e-001 2.000000e+000
         vertex 1.077063e+000 7.279673e-001 9.500000e+000
         vertex 1.077063e+000 7.279673e-001 2.000000e+000
      endloop
   endfacet
   facet normal 8.588322e-001 5.122570e-001 0.000000e+000
      outer loop
         vertex 1.077063e+000 7.279673e-001 2.000000e+000
         vertex 1.077063e+000 7.279673e-001 9.500000e+000
         vertex 1.184597e+000 5.354716e-001 9.500000e+000
      endloop
   endfacet
   facet normal 8.864937e-001 4.627406e-001 0.000000e+000
      outer loop
         vertex 1.077063e+000 7.279673e-001 2.000000e+000
         vertex 1.184597e+000 5.354716e-001 9.500000e+000
         vertex 1.184597e+000 5.354716e-001 2.000000e+000
      endloop
   endfacet
   facet normal 9.330506e-001 3.597453e-001 0.000000e+000
      outer loop
         vertex 1.184597e+000 5.354716e-001 2.000000e+000
         vertex 1.184597e+000 5.354716e-001 9.500000e+000
         vertex 1.258053e+000 3.275715e-001 9.500000e+000
      endloop
   endfacet
   facet normal 9.519458e-001 3.062663e-001 0.000000e+000
      outer loop
         vertex 1.184597e+000 5.354716e-001 2.000000e+000
         vertex 1.258053e+000 3.275715e-001 9.500000e+000
         vertex 1.258053e+000 3.275715e-001 2.000000e+000
      endloop
   endfacet
   facet normal 9.804267e-001 1.968844e-001 0.000000e+000
      outer loop
         vertex 1.258053e+000 3.275715e-001 2.000000e+000
         vertex 1.258053e+000 3.275715e-001 9.500000e+000
         vertex 1.295317e+000 1.102477e-001 9.500000e+000
      endloop
   endfacet
   facet normal 9.900123e-001 1.409813e-001 0.000000e+000
      outer loop
         vertex 1.258053e+000 3.275715e-001 2.000000e+000
         vertex 1.295317e+000 1.102477e-001 9.500000e+000
         vertex 1.295317e+000 1.102477e-001 2.000000e+000
      endloop
   endfacet
   facet normal 9.983979e-001 5.658260e-002 0.000000e+000
      outer loop
         vertex 1.295317e+000 1.102477e-001 2.000000e+000
         vertex 1.295317e+000 1.102477e-001 9.500000e+000
         vertex 1.300000e+000 1.592041e-016 2.000000e+000
      endloop
   endfacet
   facet normal 0.000000e+000 0.000000e+000 1.000000e+000
      outer loop
         vertex 1.300000e+000 1.592041e-016 9.500000e+000
         vertex 1.295317e+000 1.102477e-001 9.500000e+000
         vertex 0.000000e+000 0.000000e+000 9.500000e+000
      endloop
   endfacet
   facet normal 0.000000e+000 0.000000e+000 1.000000e+000
      outer loop
         vertex 1.300000e+000 1.592041e-016 9.500000e+000
         vertex 0.000000e+000 0.000000e+000 9.500000e+000
         vertex 1.295317e+000 -1.102477e-001 9.500000e+000
      endloop
   endfacet
   facet normal 0.000000e+000 0.000000e+000 1.000000e+000
      outer loop
         vertex 1.077063e+000 -7.279673e-001 9.500000e+000
         vertex 1.184597e+000 -5.354716e-001 9.500000e+000
         vertex 0.000000e+000 0.000000e+000 9.500000e+000
      endloop
   endfacet
   facet normal 0.000000e+000 0.000000e+000 1.000000e+000
      outer loop
         vertex 0.000000e+000 0.000000e+000 9.500000e+000
         vertex 1.184597e+000 -5.354716e-001 9.500000e+000
         vertex 1.258053e+000 -3.275715e-001 9.500000e+000
      endloop
   endfacet
   facet normal 0.000000e+000 0.000000e+000 1.000000e+000
      outer loop
         vertex 0.000000e+000 0.000000e+000 9.500000e+000
         vertex 1.258053e+000 -3.275715e-001 9.500000e+000
         vertex 1.295317e+000 -1.102477e-001 9.500000e+000
      endloop
   endfacet
   facet normal 0.000000e+000 0.000000e+000 1.000000e+000
      outer loop
         vertex 5.852649e-001 -1.160804e+000 9.500000e+000
         vertex 7.730231e-001 -1.045196e+000 9.500000e+000
         vertex 0.000000e+000 0.000000e+000 9.500000e+000
      endloop
   endfacet
   facet normal 0.000000e+000 0.000000e+000 1.000000e+000
      outer loop
         vertex 0.000000e+000 0.000000e+000 9.500000e+000
         vertex 7.730231e-001 -1.045196e+000 9.500000e+000
         vertex 9.385430e-001 -8.995205e-001 9.500000e+000
      endloop
   endfacet
   facet normal 0.000000e+000 0.000000e+000 1.000000e+000
      outer loop
         vertex 0.000000e+000 0.000000e+000 9.500000e+000
         vertex 9.385430e-001 -8.995205e-001 9.500000e+000
         vertex 1.077063e+000 -7.279673e-001 9.500000e+000
      endloop
   endfacet
   facet normal 0.000000e+000 0.000000e+000 1.000000e+000
      outer loop
         vertex -5.517356e-002 -1.298829e+000 9.500000e+000
         vertex 1.651232e-001 -1.289471e+000 9.500000e+000
         vertex 0.000000e+000 0.000000e+000 9.500000e+000
      endloop
   endfacet
   facet normal 0.000000e+000 0.000000e+000 1.000000e+000
      outer loop
         vertex 0.000000e+000 0.000000e+000 9.500000e+000
         vertex 1.651232e-001 -1.289471e+000 9.500000e+000
         vertex 3.806696e-001 -1.243017e+000 9.500000e+000
      endloop
   endfacet
   facet normal 0.000000e+000 0.000000e+000 1.000000e+000
      outer loop
         vertex 0.000000e+000 0.000000e+000 9.500000e+000
         vertex 3.806696e-001 -1.243017e+000 9.500000e+000
         vertex 5.852649e-001 -1.160804e+000 9.500000e+000
      endloop
   endfacet
   facet normal 0.000000e+000 0.000000e+000 1.000000e+000
      outer loop
         vertex -6.815995e-001 -1.106988e+000 9.500000e+000
         vertex -4.847134e-001 -1.206256e+000 9.500000e+000
         vertex 0.000000e+000 0.000000e+000 9.500000e+000
      endloop
   endfacet
   facet normal 0.000000e+000 0.000000e+000 1.000000e+000
      outer loop
         vertex 0.000000e+000 0.000000e+000 9.500000e+000
         vertex -4.847134e-001 -1.206256e+000 9.500000e+000
         vertex -2.738830e-001 -1.270822e+000 9.500000e+000
      endloop
   endfacet
   facet normal 0.000000e+000 0.000000e+000 1.000000e+000
      outer loop
         vertex 0.000000e+000 0.000000e+000 9.500000e+000
         vertex -2.738830e-001 -1.270822e+000 9.500000e+000
         vertex -5.517356e-002 -1.298829e+000 9.500000e+000
      endloop
   endfacet
   facet normal 0.000000e+000 0.000000e+000 1.000000e+000
      outer loop
         vertex -1.134918e+000 -6.340034e-001 9.500000e+000
         vertex -1.011446e+000 -8.166860e-001 9.500000e+000
         vertex 0.000000e+000 0.000000e+000 9.500000e+000
      endloop
   endfacet
   facet normal 0.000000e+000 0.000000e+000 1.000000e+000
      outer loop
         vertex 0.000000e+000 0.000000e+000 9.500000e+000
         vertex -1.011446e+000 -8.166860e-001 9.500000e+000
         vertex -8.588771e-001 -9.758740e-001 9.500000e+000
      endloop
   endfacet
   facet normal 0.000000e+000 0.000000e+000 1.000000e+000
      outer loop
         vertex 0.000000e+000 0.000000e+000 9.500000e+000
         vertex -8.588771e-001 -9.758740e-001 9.500000e+000
         vertex -6.815995e-001 -1.106988e+000 9.500000e+000
      endloop
   endfacet
   facet normal 0.000000e+000 0.000000e+000 1.000000e+000
      outer loop
         vertex -1.300000e+000 0.000000e+000 9.500000e+000
         vertex -1.281301e+000 -2.197011e-001 9.500000e+000
         vertex 0.000000e+000 0.000000e+000 9.500000e+000
      endloop
   endfacet
   facet normal 0.000000e+000 0.000000e+000 1.000000e+000
      outer loop
         vertex 0.000000e+000 0.000000e+000 9.500000e+000
         vertex -1.281301e+000 -2.197011e-001 9.500000e+000
         vertex -1.225741e+000 -4.330817e-001 9.500000e+000
      endloop
   endfacet
   facet normal 0.000000e+000 0.000000e+000 1.000000e+000
      outer loop
         vertex 0.000000e+000 0.000000e+000 9.500000e+000
         vertex -1.225741e+000 -4.330817e-001 9.500000e+000
         vertex -1.134918e+000 -6.340034e-001 9.500000e+000
      endloop
   endfacet
   facet normal 0.000000e+000 0.000000e+000 1.000000e+000
      outer loop
         vertex -1.134918e+000 6.340034e-001 9.500000e+000
         vertex -1.225741e+000 4.330817e-001 9.500000e+000
         vertex 0.000000e+000 0.000000e+000 9.500000e+000
      endloop
   endfacet
   facet normal 0.000000e+000 0.000000e+000 1.000000e+000
      outer loop
         vertex 0.000000e+000 0.000000e+000 9.500000e+000
         vertex -1.225741e+000 4.330817e-001 9.500000e+000
         vertex -1.281301e+000 2.197011e-001 9.500000e+000
      endloop
   endfacet
   facet normal 0.000000e+000 0.000000e+000 1.000000e+000
      outer loop
         vertex 0.000000e+000 0.000000e+000 9.500000e+000
         vertex -1.281301e+000 2.197011e-001 9.500000e+000
         vertex -1.300000e+000 0.000000e+000 9.500000e+000
      endloop
   endfacet
   facet normal 0.000000e+000 0.000000e+000 1.000000e+000
      outer loop
         vertex -6.815995e-001 1.106988e+000 9.500000e+000
         vertex -8.588771e-001 9.758740e-001 9.500000e+000
         vertex 0.000000e+000 0.000000e+000 9.500000e+000
      endloop
   endfacet
   facet normal 0.000000e+000 0.000000e+000 1.000000e+000
      outer loop
         vertex 0.000000e+000 0.000000e+000 9.500000e+000
         vertex -8.588771e-001 9.758740e-001 9.500000e+000
         vertex -1.011446e+000 8.166860e-001 9.500000e+000
      endloop
   endfacet
   facet normal 0.000000e+000 0.000000e+000 1.000000e+000
      outer loop
         vertex 0.000000e+000 0.000000e+000 9.500000e+000
         vertex -1.011446e+000 8.166860e-001 9.500000e+000
         vertex -1.134918e+000 6.340034e-001 9.500000e+000
      endloop
   endfacet
   facet normal 0.000000e+000 0.000000e+000 1.000000e+000
      outer loop
         vertex -5.517356e-002 1.298829e+000 9.500000e+000
         vertex -2.738830e-001 1.270822e+000 9.500000e+000
         vertex 0.000000e+000 0.000000e+000 9.500000e+000
      endloop
   endfacet
   facet normal 0.000000e+000 0.000000e+000 1.000000e+000
      outer loop
         vertex 0.000000e+000 0.000000e+000 9.500000e+000
         vertex -2.738830e-001 1.270822e+000 9.500000e+000
         vertex -4.847134e-001 1.206256e+000 9.500000e+000
      endloop
   endfacet
   facet normal 0.000000e+000 0.000000e+000 1.000000e+000
      outer loop
         vertex 0.000000e+000 0.000000e+000 9.500000e+000
         vertex -4.847134e-001 1.206256e+000 9.500000e+000
         vertex -6.815995e-001 1.106988e+000 9.500000e+000
      endloop
   endfacet
   facet normal 0.000000e+000 0.000000e+000 1.000000e+000
      outer loop
         vertex 5.852649e-001 1.160804e+000 9.500000e+000
         vertex 3.806696e-001 1.243017e+000 9.500000e+000
         vertex 0.000000e+000 0.000000e+000 9.500000e+000
      endloop
   endfacet
   facet normal 0.000000e+000 0.000000e+000 1.000000e+000
      outer loop
         vertex 0.000000e+000 0.000000e+000 9.500000e+000
         vertex 3.806696e-001 1.243017e+000 9.500000e+000
         vertex 1.651232e-001 1.289471e+000 9.500000e+000
      endloop
   endfacet
   facet normal 0.000000e+000 0.000000e+000 1.000000e+000
      outer loop
         vertex 0.000000e+000 0.000000e+000 9.500000e+000
         vertex 1.651232e-001 1.289471e+000 9.500000e+000
         vertex -5.517356e-002 1.298829e+000 9.500000e+000
      endloop
   endfacet
   facet normal 0.000000e+000 0.000000e+000 1.000000e+000
      outer loop
         vertex 1.077063e+000 7.279673e-001 9.500000e+000
         vertex 9.385430e-001 8.995205e-001 9.500000e+000
         vertex 0.000000e+000 0.000000e+000 9.500000e+000
      endloop
   endfacet
   facet normal 0.000000e+000 0.000000e+000 1.000000e+000
      outer loop
         vertex 0.000000e+000 0.000000e+000 9.500000e+000
         vertex 9.385430e-001 8.995205e-001 9.500000e+000
         vertex 7.730231e-001 1.045196e+000 9.500000e+000
      endloop
   endfacet
   facet normal 0.000000e+000 0.000000e+000 1.000000e+000
      outer loop
         vertex 0.000000e+000 0.000000e+000 9.500000e+000
         vertex 7.730231e-001 1.045196e+000 9.500000e+000
         vertex 5.852649e-001 1.160804e+000 9.500000e+000
      endloop
   endfacet
   facet normal 0.000000e+000 0.000000e+000 1.000000e+000
      outer loop
         vertex 1.295317e+000 1.102477e-001 9.500000e+000
         vertex 1.258053e+000 3.275715e-001 9.500000e+000
         vertex 0.000000e+000 0.000000e+000 9.500000e+000
      endloop
   endfacet
   facet normal 0.000000e+000 0.000000e+000 1.000000e+000
      outer loop
         vertex 0.000000e+000 0.000000e+000 9.500000e+000
         vertex 1.258053e+000 3.275715e-001 9.500000e+000
         vertex 1.184597e+000 5.354716e-001 9.500000e+000
      endloop
   endfacet
   facet normal 0.000000e+000 0.000000e+000 1.000000e+000
      outer loop
         vertex 0.000000e+000 0.000000e+000 9.500000e+000
         vertex 1.184597e+000 5.354716e-001 9.500000e+000
         vertex 1.077063e+000 7.279673e-001 9.500000e+000
      endloop
   endfacet
   facet normal 0.000000e+000 0.000000e+000 -1.000000e+000
      outer loop
         vertex -1.986230e+000 2.342884e-001 5.000000e-001
         vertex 1.986230e+000 2.342884e-001 5.000000e-001
         vertex -2.000000e+000 0.000000e+000 5.000000e-001
      endloop
   endfacet
   facet normal 0.000000e+000 0.000000e+000 -1.000000e+000
      outer loop
         vertex -2.000000e+000 0.000000e+000 5.000000e-001
         vertex 1.986230e+000 2.342884e-001 5.000000e-001
         vertex 2.000000e+000 2.449294e-016 5.000000e-001
      endloop
   endfacet
   facet normal 0.000000e+000 0.000000e+000 -1.000000e+000
      outer loop
         vertex -2.000000e+000 0.000000e+000 5.000000e-001
         vertex 2.000000e+000 2.449294e-016 5.000000e-001
         vertex -1.986230e+000 -2.342884e-001 5.000000e-001
      endloop
   endfacet
   facet normal 0.000000e+000 0.000000e+000 -1.000000e+000
      outer loop
         vertex -1.986230e+000 -2.342884e-001 5.000000e-001
         vertex 2.000000e+000 2.449294e-016 5.000000e-001
         vertex 1.986230e+000 -2.342884e-001 5.000000e-001
      endloop
   endfacet
   facet normal 0.000000e+000 1.000000e+000 0.000000e+000
      outer loop
         vertex 1.986230e+000 -2.342884e-001 0.000000e+000
         vertex -1.986230e+000 -2.342884e-001 0.000000e+000
         vertex 1.986230e+000 -2.342884e-001 5.000000e-001
      endloop
   endfacet
   facet normal 0.000000e+000 1.000000e+000 0.000000e+000
      outer loop
         vertex 1.986230e+000 -2.342884e-001 5.000000e-001
         vertex -1.986230e+000 -2.342884e-001 0.000000e+000
         vertex -1.986230e+000 -2.342884e-001 5.000000e-001
      endloop
   endfacet
   facet normal 0.000000e+000 -1.000000e+000 0.000000e+000
      outer loop
         vertex -1.986230e+000 2.342884e-001 0.000000e+000
         vertex 1.986230e+000 2.342884e-001 0.000000e+000
         vertex -1.986230e+000 2.342884e-001 5.000000e-001
      endloop
   endfacet
   facet normal 0.000000e+000 -1.000000e+000 0.000000e+000
      outer loop
         vertex -1.986230e+000 2.342884e-001 5.000000e-001
         vertex 1.986230e+000 2.342884e-001 0.000000e+000
         vertex 1.986230e+000 2.342884e-001 5.000000e-001
      endloop
   endfacet
endsolid